<svg xmlns="http://www.w3.org/2000/svg" width="305" height="213" viewBox="0 0 305 213" fill="none"><path d="M212.961 24.5873C214.118 24.4516 215.313 24.6363 216.32 25.2621C223.097 29.1899 229.868 33.1404 236.668 37.0381C239.8 39.2923 239.578 43.7592 238.5 47.05C226.663 83.049 209.983 117.401 189.518 149.272C177.124 168.523 163.305 186.862 148.072 203.957C146.361 205.921 144.243 207.722 141.642 208.303C139.976 208.706 138.193 208.28 136.82 207.278C130.42 203.482 123.959 199.788 117.539 196.026C116.589 195.479 115.881 194.605 115.421 193.628C111.847 186.263 108.278 178.901 104.704 171.539C103.863 169.718 102.687 167.965 102.586 165.9C102.288 161.406 104.406 157.068 107.369 153.799C113.457 146.901 119.262 139.75 124.754 132.366C126.33 130.195 128.256 128.167 130.748 127.062C132.387 126.338 134.389 126.105 136.014 127.002C137.959 128.076 139.862 129.23 141.785 130.345C142.188 129.953 142.61 129.569 142.935 129.105C151.744 116.112 159.762 102.583 166.939 88.6166C168.435 85.552 170.162 82.5816 171.364 79.3813C169.449 78.0808 167.365 77.0555 165.409 75.8304C163.969 74.937 163.185 73.2897 162.951 71.6613C162.559 68.9736 163.298 66.2746 164.379 63.8319C167.791 55.8895 170.942 47.8303 173.713 39.6391C174.478 37.3661 175.228 35.044 176.593 33.0424C178.625 30.0268 181.569 27.079 185.391 26.7925C194.585 26.0876 203.771 25.3224 212.961 24.5873ZM213.463 26.8264C203.952 27.5766 194.441 28.3682 184.923 29.0844C190.646 32.428 196.387 35.7376 202.109 39.0812C202.542 39.4581 203.074 39.1 203.526 38.9756C205.181 38.2858 207.002 38.5836 208.732 38.267C216.207 37.7279 223.667 36.9778 231.153 36.533C226.181 33.5249 221.096 30.7053 216.094 27.7424C215.283 27.2826 214.446 26.6907 213.463 26.8264ZM176.502 38.5045C173.619 47.1028 170.388 55.5842 166.807 63.9186C165.842 66.1238 164.937 68.476 165.164 70.9337C165.265 72.1098 165.676 73.4179 166.784 74.0172C172.258 77.2138 177.75 80.3802 183.22 83.5881C182.601 79.5622 184.573 75.8794 186.062 72.2908C189.251 64.7479 192.104 57.0619 194.72 49.3004C195.802 46.0171 197.77 43.0204 200.431 40.8076C194.389 37.2794 188.339 33.7699 182.285 30.2605C179.488 32.2508 177.535 35.2589 176.502 38.5045ZM230.297 38.9266C223.878 39.4544 217.458 39.9821 211.035 40.4797C208.736 40.8491 206.323 40.5362 204.095 41.3014C200.42 42.9827 198.03 46.6203 196.82 50.3634C193.914 59.0145 190.657 67.5525 187.053 75.9397C186.167 77.9262 185.436 80.0409 185.417 82.2386C185.564 83.539 185.847 85.0996 187.117 85.7781C188.847 86.5848 190.872 86.5547 192.564 87.448C194.472 88.9182 194.038 91.7566 193.111 93.6753C184.946 110.48 175.583 126.704 165.088 142.167C163.98 143.727 162.197 145.186 160.165 144.907C157.455 144.191 156.497 140.108 153.327 140.58C150.168 141.175 148.076 143.919 146.282 146.366C140.978 153.453 135.392 160.328 129.53 166.959C128 168.678 126.703 170.627 125.934 172.809C125.203 174.939 124.664 177.382 125.746 179.496C129.745 187.823 133.793 196.127 137.834 204.432C138.272 205.487 139.361 206.339 140.552 206.154C142.705 205.936 144.484 204.477 145.913 202.95C161.243 185.822 175.123 167.407 187.573 148.085C207.884 116.458 224.451 82.378 236.227 46.6693C236.954 44.3962 237.512 41.5917 236.012 39.5147C234.478 38.0483 232.167 38.987 230.297 38.9266ZM173.4 80.482C172.699 82.4233 171.655 84.2063 170.773 86.0646C163.765 100.053 155.936 113.631 147.288 126.67C146.161 128.302 145.174 130.044 143.873 131.555C148.054 133.938 152.177 136.414 156.369 138.77C157.843 139.814 158.921 141.315 160.312 142.457C160.757 142.747 161.364 142.525 161.76 142.234C162.913 141.477 163.569 140.225 164.33 139.113C174.286 124.295 183.182 108.769 190.996 92.7141C191.554 91.7076 191.592 90.5353 191.441 89.4195C189.209 88.5261 186.62 88.5337 184.641 87.0485C180.916 84.8207 177.136 82.6909 173.4 80.482ZM126.699 133.561C121.045 141.164 115.055 148.518 108.79 155.631C106.114 158.771 104.056 163.095 105.149 167.279C111.044 170.706 116.947 174.121 122.835 177.559C122.647 173.062 124.75 168.757 127.725 165.492C133.884 158.515 139.738 151.274 145.294 143.81C146.9 141.601 148.966 139.652 151.525 138.612C146.534 135.717 141.547 132.814 136.557 129.919C135.46 129.297 134.317 128.393 132.972 128.736C130.276 129.297 128.275 131.431 126.699 133.561ZM106.951 171.045C110.573 178.313 114.034 185.659 117.626 192.942C118.029 193.824 118.96 194.224 119.744 194.695C124.713 197.575 129.685 200.455 134.638 203.361C131.083 196.022 127.517 188.694 123.978 181.351C123.797 180.91 123.454 180.567 123.031 180.356C117.667 177.265 112.334 174.113 106.951 171.045Z" fill="#403D39"></path><path d="M117.713 28.1571C121.901 27.3919 126.416 27.8291 130.141 29.9891C133.793 32.1452 137.457 34.2788 141.099 36.4463C146.282 39.7032 149.03 45.6929 149.825 51.5885C151.152 61.246 148.815 71.0393 145.042 79.9014C140.484 90.3544 133.71 99.978 124.814 107.178C119.65 111.279 113.63 114.66 107.007 115.512C103.811 115.908 100.486 115.588 97.5192 114.295C95.2009 113.36 93.1956 111.833 91.0243 110.623C88.4686 109.025 85.7507 107.679 83.3382 105.866C78.2871 101.799 76.2327 95.1417 75.8557 88.8805C75.2752 78.2052 78.5735 67.6693 83.4551 58.2832C88.7664 48.3128 96.1169 39.1528 105.722 33.0462C109.389 30.7392 113.434 28.9374 117.713 28.1571ZM106.434 35.2664C99.6678 39.6655 94.1002 45.7156 89.5881 52.365C83.3231 61.7964 78.8072 72.6715 78.1061 84.063C77.8083 90.1093 78.6075 96.6269 82.3355 101.606C84.1336 104.098 86.8816 105.587 89.5052 107.05C87.7938 104.068 86.8891 100.702 86.4405 97.3129C85.7055 90.573 86.5763 83.7351 88.5477 77.2665C92.37 64.7705 99.4831 53.2169 109.167 44.4113C113.118 40.8981 117.554 37.8712 122.474 35.8922C125.636 34.652 129.014 33.8038 132.433 33.9471C129.873 32.492 127.378 30.7128 124.385 30.3057C118.01 29.2955 111.723 31.9153 106.434 35.2664ZM128.678 36.5179C127.106 36.7855 125.561 37.2153 124.072 37.7769C115.383 41.0903 108.304 47.5928 102.665 54.8416C95.8342 63.8244 90.8094 74.3565 89.0264 85.5482C88.0765 92.0393 88.1255 99.0092 91.0695 105.014C92.9279 108.848 96.411 111.954 100.606 112.926C105.71 114.166 111.037 112.704 115.628 110.423C121.263 107.589 126.153 103.45 130.367 98.7943C135.674 92.8762 139.964 86.0571 143.082 78.748C146.414 70.8508 148.502 62.2261 147.778 53.6165C147.292 48.4221 145.535 42.9713 141.415 39.5184C137.947 36.5443 133.085 35.7414 128.678 36.5179Z" fill="#403D39"></path><path d="M125.297 60.2396C128.086 59.7722 131.185 60.0059 133.582 61.6268C134.314 62.9046 132.708 65.2681 131.238 64.2843C127.856 62.5352 123.812 63.2363 120.479 64.7366C113.792 67.8276 108.685 73.5536 104.979 79.7997C104.58 80.4593 103.814 81.4243 102.944 80.9155C102.28 80.1615 102.842 79.14 103.283 78.4313C107.482 71.4539 113.249 65.057 120.777 61.6494C122.225 61.0123 123.733 60.4997 125.297 60.2396Z" fill="#403D39"></path><path d="M122.632 69.9951C124.833 69.49 127.314 69.5956 129.251 70.8546C129.93 71.9817 128.942 73.5875 127.736 73.8589C125.719 72.9052 123.405 72.6112 121.271 73.3764C116.02 75.1405 112.07 79.4717 109.295 84.1196C108.896 84.8094 107.968 85.846 107.169 85.0921C106.551 83.9198 107.64 82.8115 108.172 81.839C111.583 76.5616 116.382 71.6349 122.632 69.9951Z" fill="#403D39"></path><path d="M118.847 79.4152C119.782 79.0118 121.022 79.1061 121.671 79.9655C122.572 81.1341 122.398 82.7588 122.01 84.0856C121.362 86.1589 120.031 88.1039 118.105 89.167C117.14 89.7211 115.749 89.8492 114.938 88.9596C113.913 87.8212 114.071 86.1136 114.46 84.7453C115.161 82.5137 116.642 80.3576 118.847 79.4152Z" fill="#403D39"></path><path d="M213.462 26.8264C214.446 26.6907 215.283 27.2826 216.094 27.7424C221.096 30.7053 226.181 33.5249 231.153 36.533C223.667 36.9778 216.207 37.7279 208.732 38.267C207.001 38.5836 205.181 38.2858 203.526 38.9756C203.074 39.1 202.542 39.4581 202.109 39.0812C196.386 35.7376 190.645 32.428 184.923 29.0844C194.441 28.3682 203.952 27.5766 213.462 26.8264Z" fill="#FDFDFE"></path><path d="M176.502 38.5045C177.535 35.2589 179.488 32.2508 182.285 30.2605C188.339 33.7699 194.389 37.2794 200.431 40.8076C197.77 43.0204 195.802 46.0171 194.72 49.3004C192.104 57.0619 189.251 64.7479 186.062 72.2908C184.573 75.8794 182.601 79.5622 183.22 83.5881C177.75 80.3802 172.258 77.2138 166.784 74.0172C165.676 73.4179 165.265 72.1098 165.163 70.9337C164.937 68.476 165.842 66.1238 166.807 63.9186C170.388 55.5842 173.619 47.1028 176.502 38.5045Z" fill="#FDFDFE"></path><path d="M128.678 36.5179C133.085 35.7414 137.947 36.5443 141.415 39.5185C145.536 42.9714 147.292 48.4221 147.778 53.6165C148.502 62.2261 146.414 70.8508 143.082 78.748C139.964 86.0571 135.674 92.8762 130.367 98.7943C126.153 103.45 121.263 107.589 115.628 110.423C111.037 112.704 105.71 114.166 100.606 112.926C96.411 111.954 92.9279 108.848 91.0696 105.014C88.1255 99.0092 88.0765 92.0393 89.0265 85.5482C90.8095 74.3565 95.8342 63.8244 102.665 54.8416C108.304 47.5928 115.383 41.0904 124.072 37.7769C125.561 37.2153 127.106 36.7856 128.678 36.5179ZM125.297 60.2396C123.733 60.4997 122.225 61.0123 120.777 61.6494C113.249 65.057 107.482 71.4539 103.283 78.4313C102.842 79.14 102.28 80.1615 102.944 80.9155C103.814 81.4243 104.58 80.4593 104.979 79.7997C108.685 73.5536 113.792 67.8276 120.479 64.7366C123.812 63.2364 127.856 62.5352 131.238 64.2843C132.708 65.2681 134.314 62.9046 133.582 61.6268C131.185 60.0059 128.086 59.7722 125.297 60.2396ZM122.632 69.9951C116.382 71.6349 111.583 76.5616 108.172 81.839C107.64 82.8115 106.551 83.9198 107.169 85.0921C107.968 85.846 108.896 84.8094 109.295 84.1196C112.07 79.4717 116.02 75.1405 121.271 73.3764C123.405 72.6112 125.719 72.9052 127.736 73.8589C128.942 73.5875 129.93 71.9817 129.251 70.8546C127.314 69.5956 124.833 69.49 122.632 69.9951ZM118.847 79.4152C116.642 80.3576 115.161 82.5137 114.459 84.7453C114.071 86.1136 113.913 87.8212 114.938 88.9596C115.749 89.8492 117.14 89.7211 118.105 89.167C120.031 88.104 121.362 86.1589 122.01 84.0856C122.398 82.7588 122.572 81.1341 121.671 79.9655C121.022 79.1061 119.782 79.0118 118.847 79.4152Z" fill="#FDFDFE"></path><path d="M173.4 80.4819C177.135 82.6909 180.916 84.8207 184.641 87.0485C186.62 88.5337 189.209 88.5261 191.441 89.4195C191.592 90.5353 191.554 91.7076 190.996 92.7141C183.182 108.769 174.286 124.295 164.33 139.113C163.569 140.225 162.913 141.477 161.759 142.234C161.364 142.525 160.757 142.747 160.312 142.457C158.921 141.315 157.843 139.814 156.369 138.77C152.177 136.414 148.053 133.938 143.873 131.555C145.174 130.044 146.161 128.302 147.288 126.67C155.936 113.631 163.765 100.053 170.772 86.0646C171.654 84.2062 172.699 82.4233 173.4 80.4819Z" fill="#FDFDFE"></path><path d="M126.699 133.561C128.275 131.431 130.277 129.297 132.972 128.736C134.317 128.393 135.46 129.297 136.557 129.919C141.547 132.814 146.535 135.717 151.525 138.612C148.966 139.652 146.9 141.601 145.294 143.81C139.738 151.274 133.884 158.515 127.725 165.492C124.75 168.757 122.647 173.062 122.835 177.559C116.947 174.121 111.044 170.706 105.149 167.279C104.056 163.095 106.114 158.771 108.79 155.631C115.055 148.518 121.045 141.164 126.699 133.561Z" fill="#FDFDFE"></path><path d="M106.951 171.045C112.334 174.113 117.667 177.265 123.032 180.356C123.454 180.567 123.797 180.91 123.978 181.351C127.517 188.694 131.083 196.022 134.638 203.361C129.685 200.455 124.713 197.575 119.744 194.695C118.96 194.224 118.029 193.824 117.626 192.942C114.034 185.659 110.573 178.313 106.951 171.045Z" fill="#FDFDFE"></path><path d="M106.434 35.2664C111.723 31.9153 118.011 29.2955 124.385 30.3057C127.378 30.7128 129.873 32.4921 132.433 33.9471C129.014 33.8038 125.636 34.652 122.474 35.8922C117.554 37.8712 113.118 40.8981 109.167 44.4113C99.4833 53.2169 92.3702 64.7705 88.5479 77.2665C86.5764 83.7351 85.7056 90.573 86.4407 97.3129C86.8893 100.702 87.7939 104.068 89.5053 107.05C86.8817 105.587 84.1337 104.098 82.3357 101.606C78.6076 96.6269 77.8085 90.1093 78.1063 84.063C78.8074 72.6715 83.3233 61.7964 89.5882 52.365C94.1004 45.7156 99.668 39.6655 106.434 35.2664Z" fill="#FFDDDC"></path><path d="M230.297 38.9266C232.167 38.9869 234.478 38.0483 236.012 39.5147C237.512 41.5917 236.954 44.3962 236.227 46.6693C224.451 82.378 207.884 116.458 187.573 148.085C175.123 167.407 161.243 185.822 145.913 202.95C144.484 204.477 142.705 205.936 140.552 206.154C139.361 206.339 138.272 205.487 137.834 204.432C133.794 196.127 129.745 187.823 125.746 179.496C124.664 177.382 125.203 174.939 125.934 172.809C126.703 170.627 128 168.678 129.53 166.959C135.392 160.328 140.978 153.453 146.282 146.366C148.076 143.919 150.168 141.175 153.327 140.58C156.497 140.108 157.455 144.191 160.165 144.907C162.197 145.186 163.98 143.727 165.088 142.167C175.583 126.704 184.946 110.48 193.111 93.6753C194.038 91.7566 194.472 88.9182 192.564 87.448C190.872 86.5547 188.848 86.5848 187.117 85.7781C185.847 85.0996 185.564 83.539 185.417 82.2386C185.436 80.0409 186.167 77.9262 187.053 75.9397C190.657 67.5525 193.914 59.0145 196.82 50.3634C198.03 46.6203 200.42 42.9827 204.095 41.3014C206.323 40.5362 208.736 40.8491 211.035 40.4797C217.458 39.9821 223.878 39.4544 230.297 38.9266Z" fill="#FFA3A4"></path><path opacity="0.5" d="M147.5 72.5C147.5 72.5 155 69.4997 163 69.4998" stroke="#747474" stroke-dasharray="4 4"></path><path d="M231.441 62.6244C255.165 62.4171 274.105 65.2112 285.582 70.6116C297.06 76.0119 300.494 83.7454 295.399 92.7188C290.304 101.692 276.939 111.451 257.191 120.617C237.444 129.783 212.315 137.891 185.355 143.796C158.395 149.7 130.97 153.102 106.955 153.522C82.9396 153.941 63.5503 151.355 51.5278 146.131C39.5053 140.906 35.4577 133.307 39.9572 124.408C44.4567 115.508 57.2757 105.758 76.6021 96.5367" stroke="url(#paint0_linear_323_5705)" stroke-width="1.5" stroke-dasharray="4 4"></path><path d="M65.3811 184.226C61.6862 188.006 55.6261 188.076 51.8455 184.381C48.0648 180.686 47.9953 174.626 51.6902 170.845L58.3805 164L65.2259 170.69C69.0065 174.385 69.076 180.445 65.3811 184.226Z" fill="#ECB704"></path><path d="M285.76 43.4727C288.244 47.775 286.77 53.2762 282.468 55.7601C278.166 58.244 272.664 56.77 270.18 52.4677L265.683 44.6778L273.473 40.1803C277.775 37.6964 283.276 39.1705 285.76 43.4727Z" stroke="#403D39"></path><path d="M250.322 11.7119C251.94 10.1739 253.845 8.96965 255.929 8.16793C258.012 7.36621 260.234 6.98272 262.465 7.03936C264.697 7.096 266.896 7.59167 268.936 8.49805C270.976 9.40444 272.818 10.7038 274.356 12.3219L262.034 24.0339L250.322 11.7119Z" fill="#66B4F4"></path><mask id="path-19-inside-1_323_5705" fill="white"><path d="M10.4651 173.327C7.68958 169.774 6.43923 165.264 6.98909 160.789C7.53895 156.314 9.84399 152.241 13.3971 149.465C16.9503 146.69 21.4604 145.439 25.9355 145.989C30.4105 146.539 34.4838 148.844 37.2593 152.397L23.8622 162.862L10.4651 173.327Z"></path></mask><path d="M10.4651 173.327C7.68958 169.774 6.43923 165.264 6.98909 160.789C7.53895 156.314 9.84399 152.241 13.3971 149.465C16.9503 146.69 21.4604 145.439 25.9355 145.989C30.4105 146.539 34.4838 148.844 37.2593 152.397L23.8622 162.862L10.4651 173.327Z" stroke="#403D39" stroke-width="2" mask="url(#path-19-inside-1_323_5705)"></path><circle cx="299.5" cy="8.49985" r="5" stroke="#403D39"></circle><circle cx="38.5" cy="107.5" r="5" stroke="#403D39"></circle><defs><linearGradient id="paint0_linear_323_5705" x1="179.5" y1="148.5" x2="163.5" y2="68.9998" gradientUnits="userSpaceOnUse"><stop stop-color="#403D39"></stop><stop offset="1" stop-color="#A69E94" stop-opacity="0"></stop></linearGradient></defs></svg>