<svg xmlns="http://www.w3.org/2000/svg" width="63" height="63" viewBox="0 0 63 63" fill="none"><path d="M49.2003 3.30119C49.9041 2.8853 50.7212 2.57522 51.553 2.68104C52.103 2.73641 52.5743 3.04895 53.0406 3.31965C53.9438 3.85368 54.8592 4.36678 55.7599 4.90326C56.6693 5.47051 56.9879 6.61239 56.9867 7.62629C56.9929 13.204 56.9879 18.7817 57.0101 24.3582C56.9978 25.5161 57.1024 26.6998 56.7714 27.8269C56.2484 29.7132 55.125 31.4654 53.5316 32.6196C52.5558 33.2631 51.516 33.7996 50.5132 34.3988C52.6961 35.6576 54.8814 36.9114 57.0581 38.1788C57.8394 38.6329 58.5556 39.4007 58.5629 40.3531C58.5716 41.7103 58.5691 43.0687 58.5642 44.4259C58.5679 45.0055 58.3144 45.5629 57.9231 45.9825C57.5244 46.4279 56.9916 46.7158 56.481 47.0111C49.7946 50.9031 43.1033 54.7852 36.4157 58.6723C35.4806 59.1879 34.5959 59.8375 33.5414 60.091C31.7498 60.5475 29.7527 60.4048 28.1285 59.4807C20.7703 55.2331 13.4121 50.9831 6.05146 46.7392C5.20859 46.2692 4.42232 45.4509 4.43216 44.4259C4.4297 43.0687 4.4297 41.7103 4.44323 40.3531C4.46046 39.3699 5.21474 38.5861 6.02808 38.1333C10.5611 35.5013 15.0917 32.8644 19.6248 30.2325C19.626 28.5197 19.6149 26.8068 19.6125 25.0953C19.5903 23.4809 20.1908 21.9145 21.0607 20.5757C21.7227 19.5741 22.5693 18.6722 23.6189 18.073C32.146 13.1499 40.6732 8.22553 49.2003 3.30119ZM49.8082 4.03578C41.3007 8.94289 32.8006 13.8611 24.2919 18.7657C22.5705 19.6947 21.3868 21.4198 20.8109 23.2569C20.4578 24.3287 20.5661 25.4656 20.555 26.5743C20.571 32.1545 20.587 37.7359 20.603 43.3173C20.6018 43.9571 20.6953 44.6646 21.169 45.1396C21.6833 45.633 22.397 45.8237 22.9618 46.247C22.824 45.4386 22.8707 44.6154 22.856 43.7996C22.851 38.1825 22.8314 32.5654 22.8141 26.9483C22.7994 26.0452 22.9815 25.1469 23.294 24.3016C23.988 22.4707 25.2443 20.7935 26.9793 19.8387C35.1225 15.1457 43.2596 10.4441 51.3942 5.73752C52.0784 5.361 52.7391 4.9328 53.4713 4.65348C52.9372 4.35817 52.4254 4.02471 51.8827 3.74785C51.206 3.41686 50.4209 3.68879 49.8082 4.03578ZM52.5656 6.1645C44.2994 10.9436 36.0294 15.7166 27.7582 20.4872C25.5372 21.6241 24.0446 23.9854 23.7862 26.4439C28.4165 27.6596 33.0393 28.8986 37.6671 30.1193C38.2984 30.2964 38.9653 30.1156 39.5276 29.8104C40.6892 29.1693 41.5739 28.1382 42.3023 27.0492C46.8747 20.5388 51.4484 14.0284 56.022 7.51924C55.9839 6.77235 55.7612 5.8618 54.9872 5.56034C54.1345 5.2478 53.2805 5.73629 52.5656 6.1645ZM42.728 28.073C41.7843 29.381 40.544 30.609 38.9431 31.0347C38.1273 31.2722 37.3017 31.0052 36.5166 30.7874C32.2617 29.6603 28.0092 28.5295 23.7542 27.4036C23.7739 33.3652 23.7751 39.3269 23.8084 45.2885C23.8059 46.0305 24.0188 46.9065 24.7312 47.2769C25.4732 47.6374 26.3124 47.2941 26.9694 46.9053C35.0831 42.2197 43.1993 37.5378 51.313 32.8521C52.1744 32.3427 53.1009 31.9022 53.7986 31.1652C55.1988 29.7243 56.1463 27.7494 56.0749 25.713C56.0565 20.1906 56.0442 14.6683 56.0257 9.14592C51.5923 15.4545 47.1639 21.7668 42.728 28.073ZM6.47228 38.9614C5.95425 39.2592 5.40792 39.7132 5.38085 40.3592C5.3747 41.0138 5.91734 41.4962 6.44275 41.7976C13.8772 46.0944 21.3117 50.39 28.7511 54.677C30.7014 55.6478 33.1944 55.5371 35.0241 54.3349C42.1829 50.1747 49.3406 46.0095 56.5007 41.853C57.0138 41.5503 57.5577 41.116 57.6229 40.481C57.6709 39.8166 57.1258 39.3121 56.6028 38.9996C54.2612 37.6423 51.9184 36.2901 49.5731 34.939C42.4536 39.0549 35.328 43.1622 28.206 47.2745C27.5428 47.651 26.8956 48.0927 26.1426 48.2711C25.408 48.4631 24.5749 48.3733 23.9634 47.8983C22.9409 47.1563 21.7043 46.7663 20.7125 45.98C19.9459 45.3783 19.6543 44.3706 19.6678 43.4292C19.6494 39.3908 19.6432 35.3524 19.6297 31.314C15.2443 33.8636 10.8577 36.4119 6.47228 38.9614ZM5.37101 42.1939C5.38331 42.9764 5.34886 43.7602 5.37962 44.5428C5.4473 45.2085 6.03792 45.6502 6.57564 45.9603C13.7862 50.1131 20.9893 54.2783 28.1974 58.4348C30.1305 59.696 32.808 59.7416 34.7792 58.5406C42.0402 54.314 49.3098 50.1021 56.5684 45.8717C57.0876 45.5616 57.6241 45.0793 57.6253 44.4259C57.6376 43.6876 57.6229 42.9494 57.6278 42.2111C54.6316 44.0396 51.5788 45.7745 48.5555 47.5562C44.1197 50.1464 39.674 52.7193 35.232 55.2983C33.5734 56.3159 31.4877 56.4697 29.6235 56.0157C28.5949 55.777 27.7212 55.1593 26.8156 54.6487C20.2646 50.8465 13.6914 47.0825 7.1355 43.289C6.53626 42.942 5.93333 42.5999 5.37101 42.1939Z" fill="#14193E"></path><path d="M49.8081 4.03591C50.4209 3.68892 51.2059 3.41698 51.8827 3.74798C52.4253 4.02483 52.9372 4.35829 53.4712 4.6536C52.7391 4.93292 52.0783 5.36112 51.3942 5.73765C43.2596 10.4442 35.1225 15.1458 26.9792 19.8388C25.2443 20.7937 23.988 22.4708 23.294 24.3017C22.9814 25.1471 22.7993 26.0453 22.8141 26.9485C22.8313 32.5656 22.851 38.1826 22.8559 43.7997C22.8707 44.6155 22.8239 45.4387 22.9618 46.2471C22.397 45.8239 21.6833 45.6331 21.169 45.1397C20.6952 44.6648 20.6017 43.9572 20.6029 43.3174C20.5869 37.736 20.571 32.1546 20.555 26.5744C20.566 25.4658 20.4578 24.3288 20.8109 23.2571C21.3868 21.42 22.5705 19.6949 24.2919 18.7659C32.8006 13.8612 41.3007 8.94302 49.8081 4.03591Z" fill="#5180A9"></path><path d="M52.5656 6.16473C53.2805 5.73652 54.1344 5.24803 54.9871 5.56057C55.7611 5.86203 55.9838 6.77258 56.022 7.51947C51.4483 14.0287 46.8746 20.5391 42.3022 27.0495C41.5738 28.1384 40.6891 29.1696 39.5275 29.8106C38.9652 30.1158 38.2983 30.2967 37.6671 30.1195C33.0393 28.8989 28.4164 27.6598 23.7861 26.4441C24.0445 23.9856 25.5371 21.6243 27.7581 20.4874C36.0293 15.7169 44.2993 10.9439 52.5656 6.16473Z" fill="#5180A9"></path></svg>