<svg width="84" height="84" viewBox="0 0 84 84" fill="none" xmlns="http://www.w3.org/2000/svg">
<path d="M45.9278 2.15728C49.0089 1.71923 52.2704 2.05228 55.0546 3.50915C56.4278 4.24743 57.755 5.06939 59.1233 5.81751C60.1159 6.49673 61.3037 7.08079 61.8468 8.21611C62.48 9.54337 62.3537 11.0839 62.0223 12.4752C61.9239 12.7032 62.1076 12.9067 62.2077 13.0953C63.7269 15.53 64.5275 18.3486 64.895 21.1754C65.2018 23.4657 65.1198 25.7823 65.146 28.0857C66.7046 27.5673 68.3978 28.025 69.7743 28.824C72.227 30.2563 74.0514 32.5827 75.2966 35.101C76.3843 37.3782 77.0816 39.9802 76.5845 42.5052C76.3335 43.8587 75.5164 45.1105 74.2876 45.7651C74.7027 48.5181 74.701 51.4449 73.5805 54.042C72.985 55.4169 72.0104 56.649 70.7209 57.4332C68.2468 58.9049 65.7285 60.3076 63.2659 61.7989C61.5662 62.7899 59.5007 63.0113 57.5992 62.5749C53.9504 61.7481 50.8578 59.3774 48.3575 56.6785C44.9893 52.951 42.4841 48.4032 41.2897 43.5125C40.5892 40.497 40.3693 37.2535 41.3652 34.2774C41.9378 32.5581 43.0665 31.0044 44.6333 30.066C47.1845 28.6238 49.7029 27.1227 52.2425 25.6625C53.1941 25.1227 54.2786 24.8635 55.3646 24.7979C55.2843 23.0785 55.0414 21.3575 54.505 19.7185C52.7331 19.3756 51.4813 17.799 49.693 17.4889C46.6661 16.8934 43.58 17.8646 40.9075 19.2542C36.5204 21.5987 32.8914 25.1785 30.0071 29.1948C28.7996 30.8797 27.7398 32.6663 26.803 34.5153C25.9679 36.151 24.7965 37.6538 23.2527 38.6743C23.0886 38.7793 22.9377 38.9122 22.8901 39.1091C22.3077 40.73 21.8434 42.392 21.4808 44.0752C24.5849 43.7734 27.5643 45.1663 30.0252 46.9398C33.8593 49.7699 36.7567 53.7254 38.7796 58.0091C40.5104 61.7956 41.6146 66.0137 41.1027 70.1973C40.7975 72.6664 39.7049 75.216 37.5343 76.5908C35.0012 78.1084 32.4205 79.5456 29.8923 81.0697C28.4043 81.9097 26.6389 82.1952 24.9573 81.9277C22.1814 81.5061 19.6761 80.0443 17.5384 78.2823C17.1446 77.9213 16.5606 78.0509 16.0864 77.8787C13.8158 77.2438 11.9718 75.6015 10.5428 73.782C8.84473 71.5672 7.61754 68.9291 7.30254 66.1367C7.18113 64.9145 7.23855 63.6446 7.69137 62.4896C7.94402 62.0171 7.68809 61.5003 7.64051 61.0114C7.22215 58.329 7.23855 55.4809 8.27871 52.9346C8.84473 51.5302 9.82418 50.3047 11.0727 49.4467C11.3434 44.7102 12.4656 40.0524 14.1128 35.6129C13.3893 33.6163 13.9077 31.4047 14.7821 29.5426C17.1069 24.8652 19.9993 20.4667 23.3905 16.4947C26.5815 12.7787 30.2286 9.43017 34.3499 6.77072C37.8674 4.52634 41.7655 2.73642 45.9278 2.15728ZM40.7007 4.57884C35.4294 6.69361 30.816 10.1947 26.8375 14.2027C22.7851 18.3125 19.3775 23.0408 16.6295 28.112C16.0241 29.2834 15.3416 30.4367 15.0217 31.7279C14.7264 32.8845 14.5984 34.161 15.0627 35.2897C15.5171 36.3364 16.723 36.6383 17.5925 37.242C17.248 35.8721 17.4186 34.4267 17.8452 33.0962C18.2078 31.9117 18.8427 30.8403 19.4038 29.7427C21.8811 25.1802 24.8786 20.8932 28.3928 17.0689C32.1055 13.0461 36.3892 9.48431 41.2799 6.98564C45.2715 4.96111 49.798 3.65681 54.3032 4.22775C53.1088 3.66337 51.8307 3.28111 50.5232 3.10556C47.1894 2.65275 43.7999 3.35822 40.7007 4.57884ZM51.3517 5.09892C48.0163 5.304 44.7826 6.34579 41.8164 7.85517C37.4047 10.0913 33.5033 13.2331 30.0646 16.7687C25.9204 21.0802 22.4504 26.0284 19.7122 31.3407C18.8755 32.8731 18.2668 34.6269 18.4719 36.3938C18.549 37.2995 19.0773 38.2658 19.9993 38.5267C20.9312 38.7317 21.8467 38.3363 22.6391 37.8852C24.0976 36.9566 25.1755 35.5292 25.9499 34.0034C28.5519 28.8683 32.1925 24.2073 36.7895 20.7111C39.6229 18.5881 42.8779 16.854 46.4314 16.3995C48.9334 16.0714 51.6191 16.621 53.5911 18.2551C54.5197 19.0902 55.8929 18.703 56.856 18.1386C58.8018 16.9508 60.1503 14.9476 60.8853 12.8213C61.3168 11.4465 61.5564 9.86001 60.8936 8.51798C60.4112 7.74361 59.5696 7.28095 58.8067 6.82486C56.5607 5.52876 53.9275 4.99392 51.3517 5.09892ZM57.8518 18.7194C59.0725 20.8555 59.6893 23.2918 59.9043 25.7298C61.435 26.4008 62.8623 27.2949 64.1633 28.3417C64.1256 25.902 64.2289 23.4477 63.8729 21.0245C63.5415 18.552 62.8049 16.1239 61.5957 13.9353C60.7344 15.786 59.5318 17.5234 57.8518 18.7194ZM55.5369 19.6874C56.0389 21.351 56.2785 23.0835 56.3605 24.8176C57.2071 24.9078 58.0504 25.067 58.8575 25.3475C58.5967 23.2163 58.0602 21.0753 56.9511 19.2165C56.4934 19.415 56.0209 19.5725 55.5369 19.6874ZM52.9743 26.4024C51.3681 27.2605 49.8308 28.2449 48.2296 29.116C50.3 29.1587 52.2983 29.8674 54.08 30.8912C57.9306 33.1126 60.9313 36.5727 63.1806 40.3625C65.0345 43.5355 66.4028 47.0284 66.9081 50.6804C67.292 53.5417 67.1328 56.6129 65.7252 59.1936C67.2182 58.3372 68.7046 57.466 70.1893 56.5949C71.6643 55.7089 72.6125 54.152 73.0752 52.5261C73.8299 49.8535 73.6018 47.0054 72.9882 44.3279C71.9251 39.9031 69.73 35.777 66.8047 32.3038C64.6473 29.8002 62.0272 27.5788 58.9018 26.4074C57.02 25.7117 54.82 25.4771 52.9743 26.4024ZM65.1493 29.1751C66.4274 30.358 67.607 31.6475 68.6504 33.0453C71.2393 36.5103 73.19 40.4938 74.0891 44.7381C75.2113 44.0031 75.6854 42.6381 75.7494 41.3518C75.8725 38.9598 75.0702 36.6104 73.9053 34.5498C72.7093 32.499 71.0818 30.6139 68.9523 29.4999C67.8022 28.9027 66.3634 28.5631 65.1493 29.1751ZM46.6825 30.3202C44.4315 30.8157 42.7925 32.7828 42.1937 34.9386C41.1995 38.4151 41.7803 42.1393 42.8877 45.5174C44.5004 50.1964 47.2386 54.5293 50.9399 57.8352C53.0268 59.6481 55.4746 61.2034 58.2374 61.6874C60.1799 62.0417 62.3357 61.5676 63.7482 60.132C65.4725 58.3979 66.0271 55.8549 66.0648 53.4859C66.0976 49.1087 64.5882 44.8545 62.4472 41.0844C60.2603 37.3536 57.3383 33.9296 53.5534 31.7509C51.4961 30.586 49.0548 29.7838 46.6825 30.3202ZM14.7871 36.6465C13.1448 41.3108 12.0423 46.2113 12.0259 51.1742C12.0275 53.8927 12.0604 56.6113 12.0653 59.3281C12.9233 59.8334 13.7994 60.3027 14.6591 60.8063C14.6296 57.7564 14.5525 54.6999 14.8593 51.6615C15.2957 47.1465 16.0586 42.6381 17.4941 38.3249C16.5885 37.772 15.609 37.3241 14.7871 36.6465ZM18.3981 38.8548C16.9002 43.4223 16.1455 48.208 15.7764 52.992C15.5893 55.4234 15.6796 57.8614 15.6861 60.2977C16.7657 59.1017 18.1536 58.0058 19.8304 57.927C19.8205 55.4628 19.8008 52.9986 19.7926 50.5327C19.7861 46.7527 20.5407 43.0023 21.7318 39.4257C20.6047 39.7785 19.3332 39.5865 18.3981 38.8548ZM21.2741 45.1334C21.0001 46.7905 20.7639 48.4688 20.8065 50.1538C23.5808 51.7222 25.8892 54.006 27.8169 56.521C30.7143 60.3896 32.8438 64.9079 33.5722 69.71C33.9971 72.6352 33.8479 75.7754 32.4287 78.4283C33.9529 77.5292 35.495 76.6597 37.011 75.7475C38.8846 74.5466 39.8099 72.3334 40.1003 70.2006C40.6105 66.3238 39.6343 62.401 38.0872 58.8606C36.0364 54.3226 32.9619 50.1259 28.8111 47.304C26.6078 45.8586 23.9631 44.6856 21.2741 45.1334ZM9.56168 52.554C8.18191 55.1249 8.22621 58.1764 8.6216 60.9901C9.28934 60.2551 10.2376 59.8958 11.0596 59.3708C11.0825 56.4866 11.0153 53.6007 11.0333 50.7165C10.4509 51.2464 9.9341 51.8551 9.56168 52.554ZM20.777 51.2841C20.8114 53.4744 20.777 55.6646 20.8377 57.8532C23.0378 59.3462 24.685 61.5479 25.8236 63.9268C26.8079 66.0481 27.4346 68.427 27.0918 70.7731C26.8965 72.0955 26.2567 73.426 25.0968 74.1577C23.2658 75.2766 21.4021 76.3414 19.5875 77.4866C19.284 77.6621 18.951 77.7737 18.6245 77.8951C20.567 79.3766 22.7835 80.6382 25.2395 80.9647C26.9457 81.1977 28.7832 80.8121 30.1072 79.6686C31.7971 78.2298 32.5173 75.9723 32.7011 73.8247C32.9996 70.1038 32.03 66.3894 30.519 63.0146C28.3813 58.352 25.1427 54.0617 20.777 51.2841ZM18.7639 59.1608C17.5942 59.6628 16.6968 60.6144 15.9076 61.5856C18.152 63.3329 19.791 65.784 20.8065 68.4238C21.617 70.5927 22.0189 73.0438 21.2807 75.2898C22.3536 74.6631 23.4168 74.0183 24.4832 73.3784C25.4298 72.8223 25.9368 71.7542 26.1041 70.7026C26.383 68.9767 26.0418 67.2064 25.4577 65.5773C24.4881 62.9736 22.8589 60.5586 20.6113 58.895C19.9911 58.9295 19.3447 58.895 18.7639 59.1608ZM10.405 60.972C9.17777 61.3986 8.49855 62.675 8.32465 63.8973C7.98668 66.2302 8.6741 68.5895 9.71098 70.6649C10.9152 72.9929 12.6625 75.1356 14.9987 76.3939C16.1816 77.0174 17.6992 77.3865 18.9329 76.6909C20.1486 75.9887 20.59 74.5039 20.6474 73.1816C20.7343 70.7157 19.873 68.3056 18.6261 66.2089C17.4826 64.3452 15.9913 62.6077 14.0176 61.5971C12.9545 60.954 11.6256 60.5504 10.405 60.972Z" fill="black"/>
<path d="M50.0687 37.5946C51.5026 37.2139 53.007 37.7078 54.2408 38.4444C56.3982 39.7553 58.024 41.8061 59.1561 44.0357C60.1421 46.0323 60.7901 48.2816 60.5358 50.5243C60.3882 51.8713 59.7697 53.2609 58.5622 53.9729C57.3514 54.7063 55.8108 54.5701 54.5541 54.0254C52.2343 53.0197 50.4542 51.0723 49.163 48.9428C47.7685 46.5721 46.8137 43.765 47.2747 40.9923C47.5109 39.4747 48.5199 37.985 50.0687 37.5946ZM50.2311 38.5707C49.0925 38.9087 48.4231 40.0522 48.2426 41.1679C47.8981 43.2104 48.4494 45.2973 49.3041 47.1479C50.3672 49.3726 51.957 51.4234 54.0964 52.6982C55.1694 53.3216 56.5114 53.7695 57.7238 53.2904C58.7705 52.8803 59.3382 51.7794 59.5105 50.7229C59.8254 48.7738 59.3283 46.7837 58.5408 45.0036C57.5269 42.7888 56.0012 40.7429 53.9372 39.4124C52.8512 38.7364 51.5173 38.2 50.2311 38.5707Z" fill="black"/>
<path d="M12.8808 65.7414C13.5993 65.5265 14.3376 65.8891 14.8954 66.3255C15.9815 67.2131 16.7313 68.5125 16.9429 69.8988C17.0299 70.5501 16.979 71.295 16.518 71.8036C16.1686 72.1907 15.5927 72.2744 15.1104 72.1333C14.231 71.8839 13.5403 71.2162 13.0054 70.5025C12.3393 69.5707 11.8734 68.4403 11.9177 67.2803C11.9374 66.6536 12.2393 65.9465 12.8808 65.7414Z" fill="black"/>
<path d="M40.7007 4.57906C43.7998 3.35844 47.1894 2.65297 50.5231 3.10578C51.8307 3.28133 53.1087 3.66359 54.3031 4.22797C49.7979 3.65703 45.2715 4.96133 41.2798 6.98586C36.3891 9.48453 32.1054 13.0463 28.3927 17.0691C24.8785 20.8934 21.8811 25.1804 19.4037 29.743C18.8426 30.8405 18.2077 31.9119 17.8451 33.0964C17.4186 34.427 17.2479 35.8723 17.5925 37.2423C16.7229 36.6385 15.5171 36.3366 15.0626 35.2899C14.5983 34.1612 14.7263 32.8848 15.0216 31.7281C15.3415 30.437 16.024 29.2836 16.6294 28.1122C19.3775 23.041 22.7851 18.3127 26.8374 14.203C30.8159 10.1949 35.4294 6.69383 40.7007 4.57906Z" fill="#ECB704"/>
<path d="M55.5369 19.6877C56.0208 19.5728 56.4933 19.4153 56.9511 19.2168C58.0601 21.0756 58.5966 23.2166 58.8575 25.3478C58.0503 25.0673 57.207 24.9081 56.3605 24.8179C56.2784 23.0838 56.0389 21.3513 55.5369 19.6877Z" fill="#ECB704"/>
<path d="M46.6824 30.3205C49.0548 29.784 51.496 30.5863 53.5534 31.7511C57.3383 33.9299 60.2602 37.3539 62.4472 41.0846C64.5882 44.8548 66.0976 49.1089 66.0648 53.4861C66.027 55.8552 65.4725 58.3982 63.7482 60.1323C62.3356 61.5678 60.1798 62.042 58.2373 61.6876C55.4745 61.2036 53.0267 59.6483 50.9398 57.8354C47.2386 54.5296 44.5004 50.1967 42.8877 45.5176C41.7802 42.1396 41.1994 38.4153 42.1937 34.9389C42.7925 32.7831 44.4315 30.816 46.6824 30.3205ZM50.0687 37.595C48.5199 37.9855 47.5109 39.4752 47.2747 40.9928C46.8137 43.7654 47.7685 46.5725 49.163 48.9432C50.4542 51.0728 52.2343 53.0202 54.5541 54.0259C55.8109 54.5706 57.3514 54.7068 58.5622 53.9734C59.7697 53.2614 60.3882 51.8717 60.5359 50.5248C60.7902 48.2821 60.1421 46.0328 59.1561 44.0361C58.0241 41.8065 56.3982 39.7557 54.2408 38.4449C53.007 37.7082 51.5026 37.2144 50.0687 37.595Z" fill="#ECB704"/>
<path d="M14.787 36.6465C15.609 37.3241 16.5885 37.772 17.4941 38.3248C16.0585 42.638 15.2956 47.1465 14.8592 51.6615C14.5524 54.6999 14.6295 57.7564 14.6591 60.8063C13.7994 60.3027 12.9233 59.8334 12.0653 59.3281C12.0603 56.6112 12.0275 53.8927 12.0259 51.1742C12.0423 46.2113 13.1448 41.3108 14.787 36.6465Z" fill="#ECB704"/>
<path d="M9.56165 52.5543C9.93407 51.8554 10.4509 51.2467 11.0333 50.7168C11.0152 53.601 11.0825 56.4869 11.0595 59.3711C10.2376 59.8961 9.28931 60.2554 8.62157 60.9904C8.22618 58.1767 8.18188 55.1252 9.56165 52.5543Z" fill="#ECB704"/>
<path d="M20.777 51.2842C25.1427 54.0618 28.3813 58.352 30.519 63.0146C32.0301 66.3894 32.9997 70.1038 32.7011 73.8247C32.5173 75.9723 31.7971 78.2298 30.1072 79.6686C28.7833 80.8122 26.9458 81.1977 25.2395 80.9647C22.7835 80.6382 20.567 79.3766 18.6245 77.8951C18.951 77.7737 19.284 77.6621 19.5876 77.4866C21.4021 76.3414 23.2658 75.2767 25.0968 74.1578C26.2567 73.4261 26.8965 72.0955 27.0918 70.7732C27.4347 68.4271 26.8079 66.0482 25.8236 63.9268C24.685 61.5479 23.0378 59.3462 20.8377 57.8532C20.777 55.6646 20.8115 53.4744 20.777 51.2842Z" fill="#ECB704"/>
<path d="M10.405 60.9723C11.6256 60.5506 12.9545 60.9542 14.0176 61.5974C15.9913 62.608 17.4826 64.3454 18.6261 66.2092C19.873 68.3059 20.7343 70.716 20.6474 73.1818C20.59 74.5042 20.1486 75.9889 18.9329 76.6911C17.6992 77.3867 16.1816 77.0176 14.9987 76.3942C12.6625 75.1358 10.9152 72.9931 9.71097 70.6651C8.67409 68.5897 7.98667 66.2305 8.32464 63.8975C8.49855 62.6753 9.17777 61.3989 10.405 60.9723ZM12.8807 65.7416C12.2392 65.9467 11.9373 66.6538 11.9176 67.2805C11.8733 68.4404 12.3393 69.5708 13.0053 70.5027C13.5402 71.2164 14.2309 71.8841 15.1103 72.1335C15.5926 72.2746 16.1685 72.1909 16.5179 71.8037C16.9789 71.2951 17.0298 70.5503 16.9428 69.8989C16.7312 68.5126 15.9814 67.2132 14.8953 66.3256C14.3375 65.8892 13.5993 65.5267 12.8807 65.7416Z" fill="#ECB704"/>
<path d="M51.3514 5.09928C53.9272 4.99428 56.5604 5.52913 58.8064 6.82522C59.5693 7.28131 60.411 7.74397 60.8933 8.51834C61.5561 9.86038 61.3166 11.4469 60.8851 12.8217C60.1501 14.948 58.8015 16.9512 56.8557 18.139C55.8927 18.7033 54.5195 19.0905 53.5909 18.2555C51.6189 16.6214 48.9331 16.0718 46.4312 16.3999C42.8776 16.8544 39.6226 18.5885 36.7892 20.7115C32.1922 24.2076 28.5517 28.8687 25.9496 34.0038C25.1753 35.5296 24.0974 36.9569 22.6389 37.8855C21.8464 38.3367 20.931 38.7321 19.9991 38.527C19.0771 38.2662 18.5488 37.2998 18.4717 36.3942C18.2666 34.6272 18.8753 32.8734 19.712 31.3411C22.4502 26.0287 25.9201 21.0806 30.0643 16.769C33.5031 13.2335 37.4045 10.0917 41.8161 7.85553C44.7824 6.34616 48.016 5.30436 51.3514 5.09928Z" fill="#F9FAFC"/>
<path d="M57.8516 18.7196C59.5316 17.5236 60.7341 15.7862 61.5955 13.9355C62.8046 16.1241 63.5413 18.5523 63.8727 21.0247C64.2287 23.4479 64.1253 25.9023 64.163 28.3419C62.862 27.2952 61.4347 26.401 59.904 25.73C59.6891 23.292 59.0722 20.8557 57.8516 18.7196Z" fill="#F9FAFC"/>
<path d="M52.9739 26.4026C54.8196 25.4773 57.0197 25.7119 58.9015 26.4075C62.0269 27.5789 64.647 29.8004 66.8044 32.3039C69.7296 35.7772 71.9248 39.9033 72.9879 44.3281C73.6015 47.0056 73.8296 49.8537 73.0749 52.5263C72.6122 54.1522 71.6639 55.7091 70.189 56.595C68.7043 57.4662 67.2178 58.3374 65.7249 59.1938C67.1325 56.6131 67.2917 53.5418 66.9078 50.6806C66.4025 47.0286 65.0342 43.5357 63.1803 40.3627C60.931 36.5729 57.9303 33.1128 54.0797 30.8914C52.298 29.8676 50.2997 29.1589 48.2292 29.1162C49.8305 28.245 51.3678 27.2607 52.9739 26.4026Z" fill="#F9FAFC"/>
<path d="M65.1492 29.1757C66.3632 28.5637 67.8021 28.9033 68.9521 29.5005C71.0817 30.6145 72.7092 32.4996 73.9052 34.5504C75.07 36.611 75.8723 38.9604 75.7492 41.3524C75.6853 42.6386 75.2111 44.0036 74.0889 44.7386C73.1899 40.4943 71.2392 36.5109 68.6503 33.0459C67.6068 31.6481 66.4272 30.3586 65.1492 29.1757Z" fill="#F9FAFC"/>
<path d="M50.2309 38.5714C51.5172 38.2006 52.851 38.7371 53.9371 39.4131C56.001 40.7436 57.5268 42.7895 58.5407 45.0043C59.3282 46.7844 59.8253 48.7745 59.5103 50.7235C59.338 51.7801 58.7704 52.881 57.7237 53.2911C56.5112 53.7702 55.1692 53.3223 54.0962 52.6988C51.9569 51.4241 50.3671 49.3733 49.304 47.1486C48.4492 45.298 47.898 43.2111 48.2425 41.1685C48.423 40.0529 49.0923 38.9094 50.2309 38.5714Z" fill="#F9FAFC"/>
<path d="M18.3979 38.855C19.333 39.5867 20.6045 39.7787 21.7316 39.4259C20.5405 43.0025 19.7858 46.7529 19.7924 50.5329C19.8006 52.9988 19.8203 55.463 19.8301 57.9272C18.1534 58.006 16.7655 59.1019 15.6859 60.2979C15.6794 57.8616 15.5891 55.4237 15.7762 52.9922C16.1453 48.2082 16.9 43.4225 18.3979 38.855Z" fill="#F9FAFC"/>
<path d="M21.2739 45.1338C23.9628 44.6859 26.6075 45.859 28.8109 47.3044C32.9617 50.1263 36.0362 54.323 38.087 58.8609C39.6341 62.4014 40.6103 66.3241 40.1 70.2009C39.8096 72.3338 38.8843 74.547 37.0107 75.7479C35.4948 76.6601 33.9526 77.5296 32.4285 78.4287C33.8476 75.7758 33.9969 72.6356 33.572 69.7104C32.8435 64.9083 30.714 60.39 27.8167 56.5214C25.8889 54.0063 23.5806 51.7226 20.8063 50.1541C20.7636 48.4692 20.9999 46.7909 21.2739 45.1338Z" fill="#F9FAFC"/>
<path d="M18.7638 59.1613C19.3446 58.8955 19.991 58.93 20.6111 58.8955C22.8588 60.5591 24.4879 62.9741 25.4575 65.5778C26.0416 67.2069 26.3829 68.9771 26.104 70.7031C25.9366 71.7547 25.4297 72.8228 24.483 73.3789C23.4166 74.0188 22.3535 74.6636 21.2805 75.2903C22.0188 73.0443 21.6168 70.5932 20.8064 68.4243C19.7908 65.7845 18.1518 63.3334 15.9075 61.5861C16.6966 60.6149 17.594 59.6633 18.7638 59.1613Z" fill="#F9FAFC"/>
</svg>
