<svg xmlns="http://www.w3.org/2000/svg" width="63" height="63" viewBox="0 0 63 63" fill="none"><path d="M43.9635 1.63775C44.7436 1.16156 45.7809 0.893319 46.6226 1.37197C47.6648 1.96506 48.7008 2.56922 49.7406 3.16846C50.5748 3.62988 50.9132 4.63394 50.9169 5.53957C50.9452 13.7025 50.9649 21.8654 50.9883 30.0271C51.0781 31.3413 50.8554 32.6714 50.2426 33.844C52.6531 35.2345 55.0623 36.6261 57.4728 38.0166C57.9872 38.3193 58.5236 38.5912 59.0035 38.9517C59.5942 39.407 60.0691 40.0899 60.0691 40.8602C60.0765 42.2949 60.0716 43.7296 60.0667 45.1644C60.0704 46.1561 59.3308 46.9596 58.5175 47.4296C51.1531 51.7215 43.7789 55.9962 36.4109 60.2807C35.6062 60.7212 34.8482 61.2712 33.9598 61.5321C32.4365 61.9972 30.7753 61.9984 29.2496 61.5456C28.3882 61.2983 27.6426 60.7901 26.8698 60.3533C19.4317 56.0589 11.9935 51.7646 4.55283 47.4727C3.70995 46.999 2.91753 46.1844 2.92984 45.1545C2.92861 43.7222 2.92984 42.2888 2.93968 40.8565C2.94952 39.8967 3.66074 39.1141 4.44701 38.6527C9.08833 35.9445 13.7395 33.2546 18.3808 30.5476C18.3685 27.17 18.3599 23.7936 18.3488 20.4159C18.3304 18.9357 18.921 17.5083 19.7614 16.3111C20.2881 15.5765 20.9414 14.917 21.7314 14.4666C29.1437 10.1932 36.5512 5.90994 43.9635 1.63775ZM44.356 2.27144C36.8957 6.57808 29.4341 10.8835 21.9738 15.1914C20.4013 16.2151 19.3726 18.0018 19.1191 19.845C19.065 21.2994 19.1191 22.7575 19.1056 24.2132C19.9165 24.6807 20.7261 25.1495 21.5358 25.6171C21.5333 24.4617 21.5235 23.3063 21.5222 22.1509C21.521 21.4065 21.6969 20.6731 21.964 19.9816C22.5706 18.4496 23.5968 17.0112 25.0647 16.2053C32.3786 11.9909 39.6889 7.76918 46.9978 3.54867C47.335 3.34687 47.6968 3.19553 48.0659 3.0651C47.4531 2.70949 46.8428 2.34527 46.2202 2.00566C45.6136 1.69312 44.9036 1.95275 44.356 2.27144ZM47.5393 4.10238C40.1294 8.38564 32.717 12.664 25.3035 16.9399C24.591 17.3459 24.0004 17.939 23.5303 18.6059C22.7625 19.7121 22.2236 21.0349 22.2728 22.3995C22.279 23.47 22.2814 24.5405 22.2851 25.611C31.585 20.2535 40.8701 14.8714 50.1737 9.52014C50.1921 8.19369 50.1725 6.86724 50.1712 5.5408C50.1663 4.91941 50.0027 4.19467 49.4219 3.86367C48.8153 3.53637 48.0917 3.78 47.5393 4.10238ZM22.2863 26.4748C22.306 33.3186 22.3282 40.1625 22.3466 47.0064C22.3479 47.5675 22.3196 48.1593 22.5817 48.6749C22.7724 49.0809 23.1834 49.3799 23.6386 49.3935C24.2526 49.4279 24.8014 49.1105 25.3121 48.8115C32.2002 44.8334 39.0896 40.8553 45.9803 36.8784C46.7874 36.3887 47.6758 35.9961 48.3317 35.2972C49.5203 34.0643 50.3164 32.3749 50.2451 30.6399C50.2229 23.8809 50.2069 17.1232 50.1872 10.3655C40.8886 15.7377 31.5862 21.105 22.2863 26.4748ZM19.1105 25.0819C19.1302 31.9368 19.1536 38.7905 19.1745 45.6442C19.1708 46.2829 19.316 47.0371 19.9078 47.394C20.5009 47.7533 21.11 48.0843 21.7043 48.4423C21.644 48.0904 21.5948 47.7348 21.5985 47.378C21.5776 40.4111 21.5542 33.4454 21.5321 26.4797C20.7273 26.0096 19.9214 25.5408 19.1105 25.0819ZM4.83829 39.2852C4.27351 39.6199 3.70257 40.144 3.69027 40.8491C3.69027 41.5542 4.25013 42.0993 4.81861 42.4352C12.6948 46.9928 20.5785 51.537 28.4584 56.0897C29.2348 56.5253 30.122 56.7271 31.0054 56.7935C32.3233 56.8821 33.7014 56.6902 34.8556 56.0146C42.5325 51.5554 50.2057 47.0888 57.885 42.6321C58.6307 42.2408 59.492 41.5369 59.2878 40.5895C59.1401 39.9705 58.6122 39.5387 58.0856 39.236C55.354 37.6499 52.6149 36.0761 49.8808 34.4974C49.2841 35.4326 48.5224 36.289 47.5454 36.8378C40.1404 41.1087 32.7379 45.3858 25.3342 49.6593C24.559 50.1096 23.5451 50.3606 22.7207 49.8906C21.649 49.2766 20.5809 48.6552 19.5166 48.0264C18.7438 47.5724 18.4337 46.6286 18.4313 45.7747C18.4091 40.9881 18.4005 36.2004 18.3833 31.4139C13.8675 34.0372 9.35288 36.6606 4.83829 39.2852ZM3.67919 42.5004C3.68165 43.3863 3.66812 44.2735 3.67673 45.1607C3.68534 45.9346 4.33872 46.4908 4.95765 46.8452C12.7859 51.3573 20.608 55.8805 28.4362 60.3926C29.3283 60.8984 30.3582 61.1125 31.3758 61.1432C32.5804 61.1728 33.8171 60.9414 34.8605 60.3188C42.4599 55.9014 50.0617 51.4877 57.6599 47.0679C58.3391 46.6914 59.118 46.2287 59.2964 45.4092C59.3604 44.447 59.305 43.4798 59.3247 42.5152C58.6935 43.0922 57.917 43.4589 57.1923 43.8982C49.791 48.1864 42.407 52.5053 35.0008 56.7861C32.674 57.9649 29.6999 57.8308 27.506 56.4059C19.8648 51.9836 12.2113 47.5822 4.57005 43.1587C4.25136 42.9692 3.96343 42.7354 3.67919 42.5004Z" fill="#14193E"></path><path d="M38.2097 23.9634C39.0809 23.769 40.069 23.9757 40.6916 24.6414C41.4582 25.4437 41.6489 26.6212 41.5837 27.6893C41.4483 29.5461 40.6547 31.3118 39.5448 32.7896C38.6441 33.9561 37.485 35.013 36.0478 35.4486C35.1631 35.7255 34.111 35.6344 33.3986 34.9983C32.5262 34.2329 32.2862 32.9914 32.3441 31.879C32.4684 29.8857 33.3506 27.9944 34.586 26.4477C35.5236 25.3083 36.7344 24.2846 38.2097 23.9634ZM38.3365 24.6956C37.218 24.9527 36.2779 25.691 35.5052 26.513C34.3091 27.8308 33.449 29.4796 33.1574 31.2404C33.0184 32.2199 33.0184 33.3261 33.6275 34.1591C34.0606 34.7596 34.8727 34.9663 35.5741 34.7989C36.6962 34.5528 37.64 33.8133 38.414 32.9926C39.6309 31.6551 40.5033 29.9767 40.7839 28.1827C40.9131 27.2119 40.9008 26.1106 40.2781 25.2985C39.8352 24.7128 39.028 24.5307 38.3365 24.6956Z" fill="#14193E"></path><path d="M44.356 2.27161C44.9036 1.95292 45.6135 1.69329 46.2202 2.00583C46.8428 2.34544 47.4531 2.70966 48.0659 3.06526C47.6967 3.19569 47.335 3.34704 46.9978 3.54884C39.6888 7.76935 32.3786 11.9911 25.0647 16.2054C23.5968 17.0114 22.5705 18.4498 21.9639 19.9817C21.6969 20.6733 21.521 21.4066 21.5222 22.1511C21.5234 23.3065 21.5333 24.4619 21.5357 25.6173C20.7261 25.1497 19.9164 24.6809 19.1055 24.2133C19.1191 22.7577 19.0649 21.2996 19.1191 19.8452C19.3726 18.0019 20.4012 16.2153 21.9738 15.1915C29.4341 10.8837 36.8957 6.57825 44.356 2.27161Z" fill="#5180A9"></path><path d="M38.3364 24.6957C39.028 24.5308 39.8352 24.7129 40.2781 25.2986C40.9007 26.1108 40.9131 27.212 40.7839 28.1829C40.5033 29.9769 39.6309 31.6553 38.414 32.9928C37.64 33.8135 36.6962 34.553 35.574 34.7991C34.8727 34.9664 34.0606 34.7597 33.6274 34.1593C33.0184 33.3262 33.0184 32.22 33.1574 31.2406C33.449 29.4798 34.3091 27.831 35.5051 26.5131C36.2779 25.6912 37.218 24.9529 38.3364 24.6957Z" fill="#5180A9"></path><path d="M19.1104 25.082C19.9212 25.541 20.7272 26.0098 21.5319 26.4798C21.5541 33.4455 21.5774 40.4112 21.5984 47.3781C21.5947 47.735 21.6439 48.0906 21.7042 48.4425C21.1099 48.0844 20.5008 47.7534 19.9077 47.3941C19.3158 47.0373 19.1706 46.283 19.1743 45.6444C19.1534 38.7907 19.13 31.937 19.1104 25.082Z" fill="#5180A9"></path><path d="M47.5393 4.10243C48.0918 3.78005 48.8153 3.53642 49.422 3.86372C50.0027 4.19472 50.1664 4.91946 50.1713 5.54085C50.1725 6.8673 50.1922 8.19374 50.1738 9.52019C40.8702 14.8715 31.5851 20.2536 22.2852 25.611C22.2815 24.5405 22.279 23.47 22.2729 22.3995C22.2237 21.0349 22.7626 19.7122 23.5304 18.606C24.0005 17.9391 24.5911 17.346 25.3035 16.9399C32.7171 12.664 40.1295 8.38569 47.5393 4.10243Z" fill="white"></path><path d="M22.2864 26.475C31.5863 21.1053 40.8886 15.7379 50.1873 10.3657C50.2069 17.1235 50.2229 23.8812 50.2451 30.6402C50.3165 32.3751 49.5203 34.0646 48.3317 35.2975C47.6759 35.9964 46.7875 36.3889 45.9803 36.8786C39.0897 40.8555 32.2003 44.8336 25.3121 48.8117C24.8015 49.1107 24.2527 49.4282 23.6387 49.3937C23.1834 49.3802 22.7724 49.0812 22.5817 48.6751C22.3196 48.1596 22.3479 47.5677 22.3467 47.0066C22.3282 40.1628 22.3061 33.3189 22.2864 26.475ZM38.2099 23.9636C36.7345 24.2848 35.5238 25.3085 34.5861 26.448C33.3508 27.9946 32.4685 29.8859 32.3442 31.8792C32.2864 32.9916 32.5263 34.2331 33.3987 34.9985C34.1112 35.6346 35.1632 35.7257 36.0479 35.4488C37.4851 35.0132 38.6442 33.9563 39.5449 32.7898C40.6548 31.312 41.4485 29.5463 41.5838 27.6895C41.649 26.6214 41.4583 25.4439 40.6917 24.6416C40.0691 23.9759 39.081 23.7692 38.2099 23.9636Z" fill="white"></path><path d="M4.83821 39.2854C9.3528 36.6608 13.8674 34.0374 18.3832 31.4141C18.4004 36.2006 18.4091 40.9883 18.4312 45.7749C18.4337 46.6288 18.7437 47.5726 19.5165 48.0266C20.5808 48.6554 21.6489 49.2768 22.7206 49.8908C23.545 50.3608 24.5589 50.1098 25.3341 49.6595C32.7379 45.386 40.1404 41.1089 47.5453 36.838C48.5223 36.2892 49.284 35.4328 49.8808 34.4976C52.6149 36.0763 55.3539 37.6501 58.0855 39.2362C58.6122 39.5388 59.14 39.9707 59.2877 40.5897C59.4919 41.5371 58.6306 42.241 57.885 42.6322C50.2056 47.089 42.5324 51.5556 34.8555 56.0148C33.7013 56.6904 32.3232 56.8823 31.0054 56.7937C30.1219 56.7273 29.2347 56.5255 28.4583 56.0899C20.5784 51.5371 12.6948 46.993 4.81853 42.4354C4.25005 42.0995 3.69019 41.5544 3.69019 40.8493C3.70249 40.1442 4.27343 39.6201 4.83821 39.2854Z" fill="white"></path><path d="M3.67919 42.5005C3.96343 42.7355 4.25136 42.9693 4.57005 43.1588C12.2113 47.5823 19.8648 51.9837 27.506 56.406C29.6999 57.8309 32.674 57.965 35.0008 56.7862C42.407 52.5054 49.791 48.1865 57.1923 43.8983C57.917 43.459 58.6935 43.0923 59.3247 42.5153C59.305 43.4799 59.3604 44.4471 59.2964 45.4093C59.118 46.2288 58.3391 46.6915 57.6599 47.068C50.0617 51.4878 42.4599 55.9015 34.8605 60.3189C33.8171 60.9415 32.5804 61.1729 31.3758 61.1433C30.3582 61.1126 29.3283 60.8985 28.4362 60.3927C20.608 55.8806 12.7859 51.3574 4.95765 46.8453C4.33872 46.4909 3.68534 45.9347 3.67673 45.1608C3.66812 44.2736 3.68165 43.3864 3.67919 42.5005Z" fill="white"></path></svg>