<svg xmlns="http://www.w3.org/2000/svg" width="64" height="64" viewBox="0 0 64 64" fill="none"><path d="M13.4765 2.03563C13.7865 1.8203 14.1766 1.89412 14.5297 1.89043C17.6896 1.93965 20.8507 1.97164 24.0105 2.02332C24.7734 2.05655 25.2668 2.78375 25.4908 3.44328C26.4259 6.09125 27.4866 8.69369 28.6309 11.258C28.8696 11.7686 28.9348 12.534 28.3774 12.8601C27.3857 13.4519 26.3829 14.0241 25.3849 14.6036C27.0165 17.9874 28.8069 21.2925 30.7363 24.5151C32.3839 24.296 34.1459 24.472 35.5941 25.3358C43.0077 29.6104 50.4151 33.8925 57.8263 38.1708C58.3652 38.4895 58.9263 38.775 59.4382 39.1392C60.0596 39.5969 60.5714 40.2995 60.5665 41.1005C60.5739 42.4984 60.5677 43.8962 60.569 45.294C60.58 45.8022 60.4225 46.3079 60.1137 46.7127C59.64 47.3698 58.8968 47.7352 58.2175 48.1364C50.7474 52.4738 43.2809 56.8173 35.8119 61.1535C34.1053 62.1809 31.9753 62.3311 30.0681 61.8709C28.9705 61.6211 28.044 60.9603 27.0768 60.4189C19.7186 56.1726 12.3604 51.9238 5.001 47.6774C4.42268 47.3329 3.88373 46.8665 3.60688 46.2402C3.41369 45.8292 3.42354 45.3641 3.42477 44.9212C3.43584 43.6513 3.42477 42.3815 3.4383 41.1129C3.44323 39.8295 4.59987 39.0198 5.62362 38.4907C9.64602 36.1516 13.6697 33.8149 17.6921 31.4758C13.1848 23.8629 9.39746 15.8193 6.46649 7.46938C6.31637 7.05102 6.22901 6.53545 6.51571 6.15401C6.68182 5.9842 6.89961 5.87961 7.10018 5.75533C9.22643 4.51625 11.3527 3.27717 13.4765 2.03563ZM13.965 2.65209C12.0996 3.69922 10.2576 4.7968 8.40448 5.86854C11.44 5.91653 14.4793 5.91407 17.5124 6.05311C19.4086 4.96291 21.2961 3.85795 23.1873 2.75914C20.1136 2.72469 17.0374 2.64225 13.965 2.65209ZM18.1855 6.53176C18.3885 6.81846 18.562 7.12731 18.6727 7.462C19.4405 9.62885 20.2834 11.7674 21.2014 13.8752C21.461 14.4917 21.7698 15.0884 21.9642 15.7295C23.9994 14.5446 26.0371 13.3658 28.0698 12.1796C28.0637 11.8769 27.9763 11.5878 27.8447 11.3171C26.7188 8.81059 25.6963 6.25737 24.7796 3.666C24.6922 3.39899 24.5384 3.16151 24.3686 2.93879C22.31 4.13973 20.2477 5.33574 18.1855 6.53176ZM7.23184 7.40416C12.7394 22.9474 21.1324 37.4645 31.8449 50.0018C31.9987 50.1974 32.1919 50.3598 32.4195 50.4644C34.0499 47.5999 35.6827 44.7354 37.3156 41.8721C37.5518 41.4623 37.2774 40.9837 37.0129 40.66C35.1942 38.519 33.4593 36.3079 31.8129 34.0315C31.6665 33.8125 31.4622 33.6427 31.2358 33.5123C30.5 34.2308 29.7753 34.9593 29.0382 35.6754C28.7847 35.9535 28.3602 35.9916 28.0305 35.8366C27.5321 35.625 27.2589 35.1291 26.9673 34.7033C23.4802 29.5797 20.3819 24.189 17.729 18.5879C17.489 18.0711 17.4743 17.2233 18.1129 16.9994C19.1514 16.7004 20.2059 16.4604 21.2432 16.1565C21.2186 15.8599 21.1447 15.5696 21.0155 15.3013C19.886 12.7948 18.8659 10.2392 17.9455 7.6478C17.7893 7.2319 17.5149 6.68434 16.987 6.73725C13.6856 6.69418 10.3843 6.64619 7.08295 6.60067C7.06203 6.87752 7.12971 7.14823 7.23184 7.40416ZM21.4007 16.8812C20.3819 17.1839 19.3446 17.4349 18.3159 17.7069C18.2925 18.1941 18.5694 18.61 18.7675 19.0321C21.3306 24.3342 24.2861 29.4443 27.6022 34.3096C27.8274 34.6554 28.0489 35.0245 28.4217 35.23C29.0407 34.6455 29.6461 34.045 30.2564 33.452C30.5086 33.2096 30.7424 32.9376 31.0513 32.7654C32.0418 32.1944 33.0286 31.6173 34.0167 31.0415C30.5185 25.935 27.4189 20.5579 24.7365 14.9802C23.6217 15.6077 22.5389 16.2955 21.4007 16.8812ZM31.146 25.1943C32.1993 26.9256 33.287 28.6359 34.4215 30.3143C34.5113 30.4176 34.5593 30.5862 34.6959 30.6391C35.5658 30.1641 36.4112 29.6424 37.2713 29.149C37.5444 29.0014 37.8201 28.7774 38.1511 28.8229C38.6728 28.8918 39.0407 29.3188 39.3286 29.7236C40.9331 31.9483 42.6312 34.1066 44.4104 36.1959C44.8916 36.7422 45.2226 37.6011 44.8005 38.2717C43.1874 41.0944 41.5828 43.9208 39.9734 46.7435C39.8626 46.9551 39.6731 47.1052 39.4689 47.2184C37.2614 48.4957 35.0601 49.7864 32.8502 51.0587C32.3925 51.354 31.8154 51.0907 31.4893 50.7216C26.4887 44.9248 22.0196 38.6778 18.0735 32.1206C13.821 34.5889 9.56727 37.0585 5.31846 39.5329C4.75367 39.8689 4.19135 40.4041 4.1852 41.1079C4.19504 41.8462 4.80905 42.3815 5.40213 42.7223C13.2574 47.2554 21.1091 51.7958 28.9656 56.3264C31.082 57.4227 33.8124 57.3046 35.8082 55.988C43.4064 51.5694 51.0082 47.1545 58.6064 42.7358C59.1982 42.3925 59.8048 41.8511 59.8208 41.1141C59.8172 40.3684 59.1982 39.8246 58.6014 39.48C50.831 34.99 43.0582 30.5062 35.289 26.0175C34.0573 25.2693 32.5635 25.0454 31.146 25.1943ZM31.9839 33.0865C32.4872 33.6291 32.8834 34.2579 33.3325 34.8448C34.8313 36.8887 36.4973 38.8045 38.0071 40.8409C40.0718 39.6412 42.1378 38.444 44.2 37.2418C44.0635 36.9883 43.9096 36.7435 43.7189 36.5281C41.9507 34.4609 40.2773 32.3125 38.6851 30.1075C38.5276 29.875 38.3246 29.6781 38.0821 29.5378C36.0543 30.7302 34.0179 31.9065 31.9839 33.0865ZM38.1794 41.61C38.1289 41.8327 38.0748 42.0591 37.9554 42.2572C36.5428 44.7341 35.1315 47.2123 33.7214 49.6917C35.5068 48.6642 37.2823 47.6196 39.0665 46.5884C39.3458 46.4469 39.448 46.1319 39.603 45.8822C41.05 43.3375 42.502 40.7954 43.9503 38.2508C42.0283 39.373 40.0977 40.4804 38.1794 41.61ZM4.17658 42.7408C4.18397 43.6329 4.16428 44.5249 4.17782 45.417C4.19504 46.1529 4.80166 46.693 5.38983 47.0413C13.1393 51.5128 20.89 55.9843 28.6371 60.4607C29.2831 60.8582 30.0004 61.1375 30.7498 61.263C32.3236 61.5362 34.029 61.359 35.4145 60.5235C43.0397 56.0914 50.6649 51.6604 58.2901 47.2295C58.9521 46.8604 59.7064 46.3608 59.8085 45.5413C59.8455 44.6123 59.8098 43.6808 59.8245 42.7506C59.5169 43.0139 59.1958 43.2613 58.8463 43.4643C51.1362 47.9358 43.4372 52.4246 35.727 56.8961C34.7537 57.4744 33.6254 57.7525 32.5007 57.8029C31.146 57.8595 29.7494 57.6245 28.5559 56.9576C20.7621 52.4541 12.9634 47.958 5.16834 43.4532C4.8152 43.2489 4.48912 43.0029 4.17658 42.7408Z" fill="#403D39"></path><path d="M36.2942 2.44784C36.5083 2.28665 36.7889 2.34079 37.0301 2.39985C39.0308 2.89573 41.034 3.38792 43.0347 3.88256C43.6524 4.01546 44.0351 4.68852 43.9465 5.29268C43.6598 7.71671 43.3707 10.142 43.0766 12.5648C43.0581 12.9093 42.8305 13.2673 42.4663 13.3129C42.0651 13.3744 41.7145 13.0865 41.5225 12.7604C41.1447 12.1513 40.799 11.5213 40.4077 10.9196C38.5042 12.2042 36.5859 13.4667 34.6811 14.7488C34.4756 14.8817 34.2455 15.0343 33.9896 14.9789C33.6241 14.926 33.3694 14.6282 33.1947 14.3268C32.812 13.682 32.4232 13.0422 32.038 12.3986C31.8252 12.0553 31.7107 11.6074 31.8978 11.2272C32.0491 10.9774 32.2829 10.7916 32.4847 10.5837C34.0978 8.98901 35.7085 7.39186 37.318 5.79348C36.9255 5.11426 36.5071 4.45227 36.1232 3.76936C35.8833 3.36208 35.8857 2.74684 36.2942 2.44784ZM36.6486 3.08768C37.0042 3.96254 37.6219 4.6996 38.028 5.54862C38.1498 5.82055 38.0526 6.14171 37.8348 6.33366C36.0641 8.08092 34.3083 9.84418 32.5265 11.5816C32.625 12.0258 32.9129 12.3863 33.1344 12.7739C33.4359 13.2637 33.7078 13.7718 34.0449 14.2382C35.9226 12.9966 37.7991 11.7563 39.6756 10.5136C39.8983 10.3745 40.105 10.1863 40.3671 10.1223C40.655 10.0829 40.9036 10.2847 41.0426 10.5173C41.4708 11.2002 41.8535 11.9114 42.3051 12.5807C42.6225 10.1555 42.8969 7.72532 43.1959 5.29883C43.2611 5.01706 43.1381 4.65161 42.8194 4.60362C40.7621 4.10036 38.7109 3.57126 36.6486 3.08768Z" fill="#403D39"></path><path d="M46.181 13.6943C46.384 13.5553 46.6387 13.4433 46.8848 13.5467C47.2736 13.6574 47.4791 14.0339 47.6736 14.3551C48.0341 14.974 48.4204 15.5769 48.7761 16.1996C49.0197 16.6081 49.0431 17.1987 48.6604 17.5346C46.9242 19.2585 45.1892 20.9861 43.4457 22.705C43.8493 23.4236 44.3082 24.1127 44.6909 24.8424C44.8976 25.278 44.8127 25.9498 44.3045 26.1307C43.9317 26.2168 43.565 26.0371 43.2045 25.9682C41.4006 25.5105 39.5894 25.0811 37.783 24.6332C37.1174 24.5249 36.7064 23.7989 36.8208 23.1603C37.1063 20.7707 37.3942 18.3812 37.6785 15.9916C37.7006 15.6901 37.8236 15.3567 38.1251 15.2373C38.5349 15.0614 38.9889 15.3259 39.1993 15.6815C39.5943 16.3066 39.961 16.9489 40.3486 17.5789C42.2927 16.2857 44.2381 14.9912 46.181 13.6943ZM40.6623 18.2618C40.4089 18.4587 40.0225 18.3984 39.8355 18.1412C39.3322 17.43 38.9532 16.6388 38.4512 15.9264C38.1411 18.3258 37.8716 20.7314 37.5751 23.1332C37.5123 23.415 37.5689 23.8334 37.9172 23.8875C39.9794 24.3982 42.0405 24.9187 44.1064 25.4145C43.7656 24.5557 43.1688 23.8297 42.7566 23.0065C42.6262 22.7506 42.6655 22.4146 42.8833 22.219C44.6318 20.4742 46.3951 18.7442 48.1399 16.9944C48.2925 16.8677 48.1645 16.6561 48.0993 16.5182C47.6477 15.759 47.1949 15.0011 46.7298 14.253C44.686 15.5548 42.6914 16.9366 40.6623 18.2618Z" fill="#403D39"></path><path d="M13.965 2.65209C17.0375 2.64224 20.1137 2.72468 23.1874 2.75914C21.2962 3.85795 19.4086 4.96291 17.5125 6.0531C14.4794 5.91406 11.4401 5.91652 8.40454 5.86853C10.2576 4.79679 12.0996 3.69921 13.965 2.65209Z" fill="white"></path><path d="M18.1855 6.53175C20.2478 5.33574 22.3101 4.13972 24.3687 2.93878C24.5385 3.1615 24.6923 3.39898 24.7796 3.66599C25.6963 6.25736 26.7188 8.81058 27.8447 11.317C27.9764 11.5877 28.0638 11.8769 28.0699 12.1796C26.0372 13.3658 23.9995 14.5446 21.9643 15.7295C21.7699 15.0884 21.4611 14.4917 21.2014 13.8752C20.2835 11.7674 19.4406 9.62884 18.6728 7.46199C18.5621 7.1273 18.3886 6.81845 18.1855 6.53175Z" fill="white"></path><path d="M40.6625 18.2618C42.6915 16.9366 44.6861 15.5548 46.7299 14.2529C47.1951 15.0011 47.6479 15.759 48.0994 16.5182C48.1647 16.656 48.2926 16.8677 48.1401 16.9944C46.3953 18.7442 44.632 20.4742 42.8835 22.219C42.6657 22.4146 42.6263 22.7506 42.7568 23.0065C43.169 23.8297 43.7657 24.5557 44.1066 25.4145C42.0406 24.9186 39.9796 24.3982 37.9173 23.8875C37.5691 23.8334 37.5125 23.415 37.5752 23.1332C37.8718 20.7314 38.1413 18.3258 38.4513 15.9264C38.9534 16.6388 39.3324 17.43 39.8356 18.1412C40.0227 18.3984 40.409 18.4587 40.6625 18.2618Z" fill="white"></path><path d="M21.4009 16.8812C22.5391 16.2955 23.6219 15.6077 24.7367 14.9802C27.4191 20.5579 30.5186 25.935 34.0169 31.0415C33.0288 31.6173 32.042 32.1944 31.0514 32.7654C30.7426 32.9376 30.5088 33.2095 30.2566 33.452C29.6462 34.045 29.0409 34.6455 28.4219 35.23C28.0491 35.0245 27.8276 34.6554 27.6024 34.3096C24.2863 29.4443 21.3307 24.3342 18.7677 19.0321C18.5696 18.61 18.2927 18.1941 18.3161 17.7069C19.3448 17.4349 20.382 17.1839 21.4009 16.8812Z" fill="white"></path><path d="M31.1461 25.1943C32.5636 25.0454 34.0574 25.2693 35.2891 26.0175C43.0583 30.5062 50.8311 34.99 58.6016 39.48C59.1983 39.8245 59.8173 40.3684 59.8209 41.1141C59.805 41.8511 59.1983 42.3925 58.6065 42.7358C51.0083 47.1544 43.4065 51.5694 35.8084 55.988C33.8125 57.3046 31.0821 57.4227 28.9657 56.3264C21.1092 51.7958 13.2575 47.2554 5.40224 42.7223C4.80915 42.3815 4.19515 41.8462 4.1853 41.1079C4.19146 40.4041 4.75378 39.8688 5.31856 39.5329C9.56737 37.0585 13.8211 34.5889 18.0736 32.1206C22.0197 38.6778 26.4888 44.9248 31.4894 50.7216C31.8155 51.0907 32.3926 51.354 32.8503 51.0587C35.0602 49.7864 37.2615 48.4957 39.469 47.2184C39.6733 47.1052 39.8627 46.9551 39.9735 46.7435C41.5829 43.9208 43.1875 41.0944 44.8006 38.2717C45.2227 37.6011 44.8917 36.7422 44.4106 36.1959C42.6313 34.1066 40.9333 31.9483 39.3287 29.7236C39.0408 29.3188 38.6729 28.8918 38.1512 28.8229C37.8202 28.7774 37.5445 29.0013 37.2714 29.149C36.4113 29.6424 35.566 30.1641 34.696 30.6391C34.5594 30.5862 34.5114 30.4176 34.4216 30.3143C33.2871 28.6359 32.1994 26.9255 31.1461 25.1943Z" fill="white"></path><path d="M31.9841 33.0865C34.0181 31.9065 36.0545 30.7302 38.0823 29.5378C38.3247 29.6781 38.5278 29.875 38.6853 30.1075C40.2775 32.3125 41.9509 34.4609 43.7191 36.5281C43.9098 36.7434 44.0636 36.9883 44.2002 37.2418C42.138 38.444 40.072 39.6412 38.0073 40.8409C36.4975 38.8045 34.8314 36.8886 33.3327 34.8448C32.8836 34.2579 32.4874 33.6291 31.9841 33.0865Z" fill="white"></path><path d="M38.1794 41.61C40.0977 40.4804 42.0283 39.373 43.9503 38.2508C42.5021 40.7954 41.0501 43.3375 39.6031 45.8821C39.448 46.1319 39.3459 46.4469 39.0666 46.5884C37.2824 47.6196 35.5068 48.6642 33.7214 49.6917C35.1316 47.2123 36.5429 44.7341 37.9555 42.2572C38.0748 42.0591 38.129 41.8327 38.1794 41.61Z" fill="white"></path><path d="M4.17675 42.7408C4.48929 43.0028 4.81536 43.2489 5.16851 43.4532C12.9635 47.9579 20.7622 52.4541 28.556 56.9576C29.7496 57.6245 31.1462 57.8595 32.5009 57.8029C33.6256 57.7525 34.7539 57.4744 35.7272 56.8961C43.4373 52.4245 51.1364 47.9358 58.8465 43.4643C59.1959 43.2612 59.5171 43.0139 59.8247 42.7506C59.8099 43.6808 59.8456 44.6123 59.8087 45.5413C59.7066 46.3608 58.9523 46.8604 58.2903 47.2295C50.6651 51.6604 43.0399 56.0913 35.4147 60.5235C34.0292 61.359 32.3237 61.5362 30.75 61.263C30.0006 61.1375 29.2832 60.8582 28.6372 60.4607C20.8902 55.9843 13.1395 51.5128 5.38999 47.0412C4.80183 46.693 4.19521 46.1528 4.17798 45.417C4.16444 44.5249 4.18413 43.6328 4.17675 42.7408Z" fill="white"></path><path d="M36.6487 3.08768C38.7109 3.57125 40.7621 4.10035 42.8195 4.60361C43.1382 4.6516 43.2612 5.01705 43.196 5.29883C42.897 7.72531 42.6226 10.1555 42.3051 12.5807C41.8536 11.9114 41.4709 11.2002 41.0427 10.5172C40.9036 10.2847 40.6551 10.0829 40.3672 10.1223C40.1051 10.1863 39.8983 10.3745 39.6756 10.5136C37.7992 11.7563 35.9227 12.9966 34.045 14.2382C33.7079 13.7718 33.4359 13.2637 33.1345 12.7739C32.913 12.3863 32.625 12.0258 32.5266 11.5816C34.3083 9.84418 36.0642 8.08092 37.8349 6.33365C38.0526 6.1417 38.1499 5.82055 38.028 5.54861C37.622 4.69959 37.0043 3.96254 36.6487 3.08768Z" fill="#5180A9"></path><path d="M7.23179 7.40416C7.12966 7.14822 7.06198 6.87752 7.0829 6.60066C10.3842 6.64619 13.6856 6.69418 16.9869 6.73724C17.5148 6.68433 17.7892 7.23189 17.9455 7.64779C18.8659 10.2392 19.8859 12.7948 21.0155 15.3013C21.1447 15.5695 21.2185 15.8599 21.2431 16.1565C20.2058 16.4604 19.1513 16.7003 18.1128 16.9994C17.4742 17.2233 17.489 18.0711 17.7289 18.5879C20.3818 24.189 23.4801 29.5797 26.9673 34.7033C27.2589 35.1291 27.5321 35.625 28.0304 35.8366C28.3602 35.9916 28.7847 35.9535 29.0382 35.6754C29.7752 34.9593 30.5 34.2308 31.2358 33.5122C31.4622 33.6427 31.6664 33.8125 31.8129 34.0315C33.4592 36.3079 35.1942 38.519 37.0128 40.66C37.2774 40.9837 37.5518 41.4623 37.3155 41.8721C35.6827 44.7354 34.0499 47.5999 32.4195 50.4644C32.1918 50.3598 31.9987 50.1974 31.8449 50.0018C21.1324 37.4645 12.7394 22.9474 7.23179 7.40416Z" fill="#5180A9"></path></svg>