<svg xmlns="http://www.w3.org/2000/svg" width="533" height="389" viewBox="0 0 533 389" fill="none"><path opacity="0.25" d="M525.5 99.1595C499.5 20.1595 429.767 -19.5358 339.5 11.6595C271.5 35.1595 259.544 92.7751 201.501 117.66C145.163 141.812 108.257 80.568 47.0001 117.66C-7.49965 150.66 -9.50524 233.895 21.4998 254.66C75.9997 291.16 29.5 327.16 82 368.66C134.5 410.16 202.504 378.969 210.5 333.66C221 274.16 154 292.16 177.5 236.16" stroke="#403D39" stroke-dasharray="6 6"></path><circle cx="528" cy="108.66" r="5" fill="#403D39" fill-opacity="0.3"></circle><path d="M183.161 236.591L181.535 230.721C181.343 230.028 180.618 229.618 179.925 229.81L174.056 231.436" stroke="#292D32" stroke-opacity="0.3" stroke-width="1.5" stroke-miterlimit="10" stroke-linecap="round" stroke-linejoin="round"></path></svg>