<svg xmlns="http://www.w3.org/2000/svg" width="64" height="64" viewBox="0 0 64 64" fill="none"><path d="M26.7521 6.19092C28.6359 5.02566 30.9726 4.78203 33.1259 5.14625C34.05 5.30621 34.9507 5.61629 35.7603 6.09371C42.3396 9.89094 48.9189 13.6869 55.4958 17.4891C56.6549 18.0797 57.814 19.1428 57.7291 20.5579C57.7193 21.8314 57.7279 23.1049 57.7082 24.3772C57.6811 25.4847 56.853 26.378 55.9498 26.9169C54.6455 27.6872 53.3326 28.4427 52.0234 29.2019C52.0123 30.9627 52.0123 32.7235 52.0062 34.4831C53.7005 35.4638 55.3986 36.4395 57.0917 37.4239C57.7992 37.8373 58.4625 38.5116 58.5141 39.373C58.5363 40.5247 58.5141 41.6764 58.524 42.8294C58.5191 43.2945 58.5621 43.7817 58.3751 44.2222C58.113 44.8609 57.5593 45.3211 56.9761 45.657C49.7606 49.8529 42.5451 54.0488 35.3247 58.2348C33.1665 59.373 30.377 59.266 28.3184 57.9494C21.1965 53.8322 14.0708 49.7224 6.94642 45.6114C6.20568 45.1832 5.50801 44.4757 5.48094 43.5726C5.46863 42.2141 5.47847 40.8557 5.48586 39.4985C5.48463 38.5928 6.15892 37.8583 6.90213 37.4313C8.5731 36.4629 10.2355 35.4773 11.9175 34.5298C11.9606 32.5119 11.9507 30.4914 11.9434 28.4722C10.6551 27.7377 9.37291 26.9932 8.09076 26.25C7.18636 25.7172 6.3398 24.8497 6.28074 23.7472C6.2549 22.6435 6.28689 21.5398 6.28074 20.4361C6.28689 19.8836 6.2426 19.3065 6.46162 18.7848C6.77416 18.001 7.43738 17.4189 8.15228 17.003C14.3514 13.3978 20.5542 9.79865 26.7521 6.19092ZM27.3341 6.65603C21.0316 10.3204 14.7279 13.981 8.42668 17.6453C7.69578 18.0785 6.97842 18.7811 6.98088 19.6904C7.03133 20.6157 7.76961 21.3232 8.52388 21.765C11.7243 23.6156 14.9285 25.4613 18.1277 27.3144C21.5336 25.3419 24.9346 23.3584 28.3394 21.3835C27.9087 20.9184 27.5986 20.2736 27.7696 19.6301C28.0047 18.7048 28.8709 18.1166 29.7175 17.7955C31.1473 17.2799 32.7617 17.2762 34.1988 17.7696C35.0196 18.0674 35.8538 18.5916 36.1799 19.4418C36.4272 20.0657 36.2291 20.7904 35.7886 21.274C35.1217 22.0283 34.125 22.3863 33.1566 22.5525C31.7219 22.7764 30.1814 22.6017 28.9214 21.8462C25.561 23.8125 22.1772 25.7381 18.8328 27.729C22.0394 29.5538 25.2263 31.4143 28.423 33.2551C29.2327 33.7559 30.142 34.0881 31.0808 34.2431C33.0373 34.5618 35.1525 34.3367 36.869 33.2908C42.8318 29.8245 48.7934 26.3571 54.7575 22.8933C55.4121 22.5045 56.1295 22.1575 56.5995 21.5361C56.9748 21.0673 57.1483 20.4114 56.9379 19.8331C56.6943 19.1268 56.0803 18.6322 55.4552 18.268C48.7824 14.4068 42.1034 10.5554 35.4269 6.70033C34.2518 6.00019 32.8736 5.70365 31.5164 5.67535C30.0731 5.65197 28.5916 5.92267 27.3341 6.65603ZM29.7384 18.535C29.1871 18.7983 28.5854 19.1847 28.439 19.8196C28.327 20.2921 28.631 20.7141 28.9484 21.0267C29.9316 20.4631 30.9024 19.8787 31.8905 19.3249C32.2227 19.0579 32.646 19.6252 32.299 19.8627C31.4328 20.4274 30.4988 20.8827 29.6363 21.4536C30.7954 21.984 32.128 22.0701 33.3683 21.8129C34.0795 21.6431 34.8104 21.354 35.2977 20.7855C35.6163 20.4299 35.6963 19.8725 35.4293 19.464C35.0516 18.8697 34.3785 18.5485 33.73 18.3393C32.4307 17.9579 30.9873 17.9973 29.7384 18.535ZM6.96734 21.4081C6.98211 22.187 6.94273 22.9671 6.97595 23.7448C7.0547 24.6369 7.79545 25.2755 8.52019 25.7012C11.6087 27.4842 14.6971 29.2659 17.7844 31.0476C17.7856 30.0042 17.7844 28.9607 17.7856 27.9173C14.5827 26.0605 11.3749 24.2148 8.17074 22.3617C7.72654 22.1033 7.32787 21.7736 6.96734 21.4081ZM55.7419 23.1222C49.72 26.6204 43.7018 30.1223 37.6798 33.6193C36.837 34.1398 35.94 34.5914 34.9642 34.8005C32.63 35.3247 30.0399 35.0934 27.985 33.8026C24.8165 31.9729 21.6505 30.1371 18.4771 28.316C18.4821 29.3619 18.4722 30.409 18.4821 31.4549C21.7428 33.3289 24.9974 35.2177 28.2557 37.0966C30.4951 38.5104 33.4212 38.6544 35.8686 37.718C37.0486 37.179 38.1277 36.4445 39.2622 35.8181C44.6591 32.6817 50.0571 29.5489 55.4527 26.4087C56.1689 25.9904 56.9022 25.369 57.0044 24.4917C57.0486 23.7029 57.013 22.9118 57.0327 22.1218C56.6487 22.5119 56.2169 22.8515 55.7419 23.1222ZM12.6472 28.8845C12.6398 31.1522 12.6312 33.4187 12.6287 35.6865C12.6201 37.1003 13.1086 38.4846 13.8961 39.6498C15.3468 41.7859 17.5715 43.2588 19.8774 44.3391C24.2628 46.3313 29.1662 46.9945 33.9503 46.7447C37.6835 46.522 41.4303 45.7222 44.7883 44.0352C46.6413 43.0927 48.396 41.8659 49.6818 40.2121C50.6576 38.9608 51.3024 37.4141 51.3073 35.812C51.3184 33.7448 51.3196 31.6776 51.327 29.6092C46.6204 32.347 41.9114 35.0786 37.2049 37.8152C36.3349 38.3455 35.3579 38.6864 34.3527 38.8488C32.2215 39.1896 29.9193 38.9288 28.0551 37.782C24.8633 35.9387 21.6727 34.0918 18.4771 32.2535C18.4796 33.4175 18.4759 34.5828 18.4796 35.7468C19.6744 35.9326 20.5603 37.2073 20.2355 38.3898C20.0325 39.2696 19.2314 39.9673 18.3307 40.0387C17.462 40.1346 16.5748 39.6326 16.1959 38.8488C15.8144 38.108 15.9252 37.1507 16.4616 36.5146C16.7902 36.1048 17.275 35.8538 17.7832 35.7468C17.7869 34.4486 17.7832 33.1505 17.7856 31.8523C16.0753 30.8594 14.3625 29.8701 12.6472 28.8845ZM7.25896 38.0244C6.72248 38.3394 6.17738 38.8414 6.17861 39.512C6.2106 40.1642 6.74094 40.6563 7.26388 40.9763C14.5409 45.1845 21.824 49.3828 29.1022 53.5898C30.5087 54.3822 32.2326 54.472 33.7817 54.1029C34.664 53.9048 35.4109 53.3769 36.1861 52.9401C42.8552 49.0641 49.5231 45.1869 56.1935 41.3122C56.7213 41.0058 57.3009 40.7093 57.6282 40.1691C57.8669 39.7975 57.8989 39.2979 57.6737 38.9115C57.3427 38.3012 56.6894 37.9924 56.116 37.6589C54.7452 36.8702 53.3806 36.0716 52.0062 35.2903C52.0923 37.1249 51.4906 38.9534 50.393 40.4189C48.6864 42.7223 46.1639 44.2752 43.5516 45.3617C39.5932 46.9785 35.2706 47.579 31.0119 47.4658C26.9932 47.3353 22.9462 46.5614 19.2966 44.8301C17.2011 43.8186 15.209 42.4762 13.7546 40.6354C12.5574 39.1404 11.8437 37.2381 11.9323 35.3112C10.372 36.2119 8.81551 37.1175 7.25896 38.0244ZM17.7524 36.4629C17.2504 36.5933 16.8345 37.008 16.709 37.5125C16.4703 38.3381 17.1027 39.2696 17.9603 39.3422C18.8352 39.4726 19.6805 38.6679 19.5981 37.7881C19.571 36.8948 18.6076 36.207 17.7524 36.4629ZM6.16877 41.0193C6.18107 41.8696 6.15277 42.7211 6.17492 43.5713C6.23029 44.2629 6.82338 44.7464 7.3857 45.0651C14.563 49.2044 21.7379 53.3486 28.914 57.4892C30.2515 58.321 31.9212 58.4834 33.4458 58.1918C34.7132 57.9666 35.7443 57.1483 36.8517 56.5515C43.468 52.7039 50.0879 48.8623 56.7041 45.0134C57.2295 44.6984 57.7697 44.2272 57.8214 43.575C57.8448 42.7272 57.8214 41.877 57.8312 41.0292C57.0302 41.733 56.0421 42.1661 55.1427 42.7248C48.631 46.5048 42.1255 50.2958 35.6127 54.0734C33.997 55.0639 31.9668 55.2116 30.1555 54.7612C29.2462 54.5483 28.4686 54.0192 27.67 53.5627C20.9627 49.6868 14.2493 45.8206 7.54197 41.9434C7.05717 41.6789 6.58713 41.3836 6.16877 41.0193Z" fill="#403D39"></path><path d="M27.3341 6.65603C28.5917 5.92267 30.0732 5.65197 31.5165 5.67535C32.8737 5.70365 34.2518 6.00019 35.4269 6.70033C42.1035 10.5554 48.7824 14.4068 55.4553 18.268C56.0804 18.6322 56.6944 19.1268 56.938 19.8331C57.1484 20.4114 56.9749 21.0673 56.5996 21.5361C56.1296 22.1575 55.4122 22.5045 54.7576 22.8933C48.7935 26.3571 42.8319 29.8245 36.869 33.2908C35.1525 34.3367 33.0374 34.5618 31.0809 34.2431C30.1421 34.0881 29.2328 33.7559 28.4231 33.2551C25.2264 31.4143 22.0394 29.5538 18.8328 27.729C22.1773 25.7381 25.561 23.8125 28.9214 21.8462C30.1814 22.6017 31.722 22.7764 33.1567 22.5525C34.1251 22.3863 35.1218 22.0283 35.7887 21.274C36.2292 20.7904 36.4273 20.0657 36.18 19.4418C35.8539 18.5916 35.0197 18.0674 34.1989 17.7696C32.7617 17.2762 31.1474 17.2799 29.7176 17.7955C28.871 18.1166 28.0047 18.7048 27.7697 19.6301C27.5987 20.2736 27.9088 20.9184 28.3394 21.3835C24.9347 23.3584 21.5337 25.3419 18.1278 27.3144C14.9286 25.4613 11.7244 23.6156 8.52397 21.765C7.76969 21.3232 7.03141 20.6157 6.98096 19.6904C6.9785 18.7811 7.69587 18.0785 8.42676 17.6453C14.728 13.981 21.0317 10.3204 27.3341 6.65603Z" fill="white"></path><path d="M12.6472 28.8845C14.3625 29.8701 16.0753 30.8594 17.7857 31.8523C17.7832 33.1505 17.7869 34.4486 17.7832 35.7468C17.275 35.8538 16.7902 36.1048 16.4617 36.5146C15.9252 37.1507 15.8145 38.108 16.1959 38.8488C16.5749 39.6326 17.4621 40.1346 18.3308 40.0387C19.2315 39.9673 20.0325 39.2696 20.2355 38.3898C20.5604 37.2073 19.6744 35.9326 18.4797 35.7468C18.476 34.5828 18.4797 33.4175 18.4772 32.2535C21.6727 34.0918 24.8633 35.9387 28.0552 37.782C29.9193 38.9288 32.2215 39.1896 34.3527 38.8488C35.358 38.6864 36.335 38.3455 37.2049 37.8152C41.9115 35.0786 46.6205 32.347 51.327 29.6092C51.3196 31.6776 51.3184 33.7448 51.3073 35.812C51.3024 37.4141 50.6576 38.9608 49.6819 40.2121C48.396 41.8659 46.6414 43.0927 44.7883 44.0352C41.4304 45.7222 37.6836 46.522 33.9503 46.7447C29.1663 46.9945 24.2629 46.3313 19.8775 44.3391C17.5716 43.2588 15.3469 41.7859 13.8962 39.6498C13.1087 38.4846 12.6202 37.1003 12.6288 35.6865C12.6312 33.4187 12.6398 31.1522 12.6472 28.8845Z" fill="white"></path><path d="M7.25906 38.0244C8.81561 37.1175 10.3722 36.2119 11.9324 35.3112C11.8438 37.2381 12.5575 39.1404 13.7547 40.6354C15.2091 42.4762 17.2013 43.8186 19.2967 44.8301C22.9463 46.5614 26.9933 47.3353 31.012 47.4658C35.2707 47.579 39.5933 46.9785 43.5517 45.3617C46.164 44.2752 48.6865 42.7223 50.3931 40.4189C51.4907 38.9534 52.0924 37.1249 52.0063 35.2903C53.3807 36.0716 54.7453 36.8702 56.1161 37.6589C56.6895 37.9924 57.3428 38.3012 57.6738 38.9115C57.899 39.2979 57.867 39.7975 57.6283 40.1691C57.301 40.7093 56.7214 41.0058 56.1936 41.3122C49.5232 45.1869 42.8553 49.0641 36.1862 52.9401C35.411 53.3769 34.6641 53.9048 33.7818 54.1029C32.2327 54.472 30.5088 54.3822 29.1023 53.5898C21.8241 49.3828 14.541 45.1845 7.26399 40.9763C6.74104 40.6563 6.21071 40.1642 6.17871 39.512C6.17748 38.8414 6.72258 38.3394 7.25906 38.0244Z" fill="white"></path><path d="M6.16888 41.0193C6.58724 41.3836 7.05728 41.6789 7.54208 41.9434C14.2494 45.8206 20.9628 49.6868 27.6701 53.5627C28.4687 54.0192 29.2463 54.5483 30.1556 54.7612C31.9669 55.2116 33.9972 55.0639 35.6128 54.0734C42.1256 50.2958 48.6311 46.5048 55.1428 42.7248C56.0422 42.1661 57.0303 41.733 57.8313 41.0292C57.8215 41.877 57.8449 42.7272 57.8215 43.575C57.7698 44.2272 57.2296 44.6984 56.7042 45.0134C50.088 48.8623 43.4681 52.7039 36.8518 56.5515C35.7444 57.1483 34.7133 57.9666 33.4459 58.1918C31.9214 58.4834 30.2516 58.321 28.9141 57.4892C21.738 53.3486 14.5631 49.2044 7.38581 45.0651C6.82349 44.7464 6.2304 44.2629 6.17503 43.5713C6.15288 42.7211 6.18118 41.8696 6.16888 41.0193Z" fill="white"></path><path d="M29.7384 18.535C30.9873 17.9973 32.4306 17.9579 33.73 18.3393C34.3785 18.5485 35.0515 18.8697 35.4293 19.464C35.6963 19.8725 35.6163 20.4299 35.2976 20.7855C34.8104 21.354 34.0795 21.6431 33.3682 21.8129C32.1279 22.0701 30.7953 21.984 29.6362 21.4536C30.4988 20.8827 31.4327 20.4274 32.299 19.8627C32.646 19.6252 32.2227 19.0579 31.8905 19.3249C30.9024 19.8786 29.9315 20.4631 28.9484 21.0267C28.6309 20.7141 28.327 20.2921 28.439 19.8196C28.5854 19.1847 29.1871 18.7983 29.7384 18.535Z" fill="#5180A9"></path><path d="M6.96729 21.4081C7.32782 21.7736 7.72649 22.1033 8.17069 22.3617C11.3748 24.2148 14.5827 26.0605 17.7856 27.9173C17.7843 28.9607 17.7856 30.0042 17.7843 31.0476C14.6971 29.2659 11.6086 27.4842 8.52014 25.7012C7.7954 25.2755 7.05465 24.6369 6.9759 23.7448C6.94268 22.9671 6.98206 22.187 6.96729 21.4081Z" fill="#5180A9"></path><path d="M55.7418 23.1222C56.2168 22.8515 56.6487 22.5119 57.0326 22.1218C57.0129 22.9118 57.0486 23.7029 57.0043 24.4917C56.9021 25.369 56.1688 25.9904 55.4526 26.4087C50.057 29.5489 44.659 32.6817 39.2621 35.8181C38.1276 36.4445 37.0485 37.179 35.8685 37.718C33.4211 38.6544 30.495 38.5104 28.2556 37.0966C24.9973 35.2177 21.7427 33.3289 18.482 31.4549C18.4721 30.409 18.482 29.3619 18.4771 28.316C21.6504 30.1371 24.8164 31.9729 27.9849 33.8026C30.0398 35.0934 32.6299 35.3247 34.9641 34.8005C35.9399 34.5914 36.8369 34.1398 37.6797 33.6193C43.7017 30.1223 49.7199 26.6204 55.7418 23.1222Z" fill="#5180A9"></path><path d="M17.7523 36.4629C18.6074 36.207 19.5709 36.8948 19.598 37.7881C19.6804 38.6679 18.8351 39.4726 17.9602 39.3422C17.1026 39.2696 16.4701 38.3381 16.7088 37.5125C16.8343 37.008 17.2502 36.5933 17.7523 36.4629Z" fill="#5180A9"></path></svg>