<svg xmlns="http://www.w3.org/2000/svg" width="64" height="64" viewBox="0 0 64 64" fill="none"><path d="M32.9067 4.18279C32.8649 3.84811 33.2857 3.6943 33.5171 3.90717C36.5735 5.68889 39.6276 7.4743 42.6816 9.26094C43.0716 9.47381 43.3682 9.83803 43.4937 10.2638C43.7706 11.1276 43.5823 12.0516 43.2919 12.8847C41.8941 17.0879 40.5 21.2912 39.1046 25.4957C40.8543 26.2156 42.5622 27.2516 43.6512 28.8389C44.1618 29.5797 44.4633 30.4545 44.5334 31.3515C48.7023 33.7657 52.8773 36.1664 57.0461 38.5806C57.7881 39.0026 58.4857 39.7052 58.5177 40.6071C58.5374 41.8401 58.5153 43.0742 58.5239 44.3072C58.5202 44.7858 58.5436 45.31 58.2532 45.7197C57.8594 46.2673 57.2688 46.6266 56.7175 46.997C54.9358 48.1093 53.0815 49.1011 51.2616 50.1494C46.0789 53.0582 40.9466 56.0569 35.8488 59.1109C33.8198 60.4497 31.0524 60.5457 28.8954 59.4604C21.6652 55.2965 14.4436 51.1166 7.21456 46.9502C6.38768 46.5134 5.53989 45.8046 5.48329 44.8006C5.46729 43.404 5.47468 42.0062 5.49067 40.6096C5.5202 39.7089 6.21173 39.0038 6.9537 38.583C11.1385 36.1541 15.3184 33.7153 19.5082 31.2937C19.6398 29.5871 20.714 28.1191 22.0368 27.104C21.6676 26.4026 21.2542 25.7246 20.9097 25.0122C20.4692 23.8272 20.874 22.5192 21.4658 21.461C24.446 16.2426 27.4361 11.0291 30.4175 5.80947C30.5541 5.57938 30.6636 5.32344 30.8543 5.13148C31.1189 4.96537 31.4499 5.23854 31.3797 5.53139C31.397 9.55871 31.3994 13.586 31.4166 17.6134C31.4056 17.9923 31.472 18.3972 31.3034 18.754C31.0672 19.2523 30.762 19.7347 30.6845 20.2921C30.6242 20.7092 30.5984 21.1928 30.8728 21.5447C31.1041 21.8363 31.5335 21.7736 31.8313 21.6333C32.529 21.2974 33.031 20.6563 33.3706 19.9771C33.6438 19.4012 33.8247 18.7417 33.6807 18.1068C33.597 17.6158 32.8465 17.5494 32.94 16.9895C32.9277 12.721 32.908 8.45129 32.9067 4.18279ZM33.5983 4.75496C33.6081 8.8315 33.6167 12.908 33.634 16.9846C34.4953 17.494 34.5543 18.6396 34.2898 19.5034C34.0031 20.5185 33.3805 21.4537 32.5044 22.0529C32.0183 22.374 31.3834 22.5771 30.8186 22.3457C30.3018 22.1366 30.0164 21.5841 29.9672 21.0525C29.8786 20.2035 30.164 19.3668 30.5885 18.642C30.7916 18.3332 30.7104 17.9517 30.7239 17.6047C30.7091 13.9798 30.7042 10.3548 30.6919 6.72986C27.8274 11.733 24.9641 16.7385 22.1008 21.7428C21.5827 22.678 21.1435 23.8703 21.6258 24.9051C23.426 28.2015 25.2335 31.4931 27.0399 34.7858C30.4433 32.8195 33.8481 30.8569 37.2503 28.8881C39.0677 23.4052 40.89 17.9234 42.7074 12.4405C42.9092 11.8105 43.0458 11.1128 42.8354 10.468C42.7579 10.2059 42.5672 9.99553 42.3321 9.86264C39.4245 8.15475 36.5096 6.45793 33.5983 4.75496ZM38.1498 28.3443C38.2433 28.3184 38.4279 28.2655 38.5214 28.2385C38.8511 28.2668 38.9274 28.7676 38.6198 28.8918C34.4854 31.2949 30.34 33.6808 26.1958 36.0679C25.9103 36.3263 25.4587 35.9387 25.6728 35.6262C25.8832 35.4035 26.1835 35.2952 26.4382 35.1328C25.0834 32.6608 23.7299 30.1888 22.3715 27.718C21.2124 28.6408 20.2071 29.9636 20.196 31.5054C20.1702 33.0742 21.1632 34.4474 22.3395 35.3924C24.4707 37.0917 27.1863 37.8583 29.8552 38.1696C33.1085 38.5006 36.4948 38.1462 39.4934 36.7878C41.082 36.0421 42.6447 34.9716 43.442 33.3584C44.0425 32.176 43.9674 30.7092 43.2907 29.5747C42.3297 27.9161 40.6144 26.8689 38.8868 26.1516C38.6395 26.8813 38.4106 27.6183 38.1498 28.3443ZM7.23425 39.2241C6.6953 39.5428 6.15143 40.062 6.17973 40.7388C6.21911 41.4008 6.77036 41.877 7.30684 42.1858C14.5814 46.3891 21.8584 50.5887 29.1341 54.7907C29.9647 55.2682 30.9306 55.4577 31.8805 55.4884C33.0113 55.5155 34.1766 55.3088 35.1573 54.7218C42.3186 50.5629 49.4762 46.3965 56.6376 42.2375C57.1974 41.9176 57.7856 41.4315 57.8274 40.7388C57.852 40.0239 57.2553 39.496 56.6856 39.1712C52.6398 36.8345 48.5952 34.4979 44.5482 32.1637C44.5298 35.1832 44.5162 38.204 44.4978 41.2248C44.4953 41.9963 44.2972 42.7629 43.9379 43.4446C43.068 45.0799 41.493 46.2045 39.8564 46.9896C36.7323 48.4378 33.191 48.8168 29.7887 48.4871C27.0005 48.1831 24.1741 47.3735 21.9297 45.6336C20.5676 44.5791 19.4503 43.0078 19.4516 41.2261C19.4626 38.1819 19.4848 35.1377 19.4983 32.0935C15.4119 34.4732 11.3206 36.8431 7.23425 39.2241ZM20.18 33.9749C20.1714 36.1048 20.1579 38.2348 20.1468 40.3647C20.1443 40.9615 20.1086 41.5694 20.2637 42.1526C20.5344 43.2071 21.2198 44.1066 22.0282 44.8141C23.8099 46.346 26.0924 47.1618 28.3749 47.5913C30.767 48.0269 33.2377 48.0293 35.631 47.595C37.8323 47.1864 40.0275 46.4063 41.7772 44.9728C42.8649 44.0795 43.7632 42.8047 43.8001 41.354C43.8247 38.9251 43.8259 36.4949 43.8444 34.066C42.5549 36.1455 40.2859 37.371 38.0157 38.0982C34.3329 39.2192 30.3289 39.2536 26.6166 38.2496C24.1212 37.531 21.5729 36.266 20.18 33.9749ZM6.17112 42.1994C6.18096 43.0644 6.14897 43.9306 6.1785 44.7956C6.26095 45.5105 6.8971 45.9794 7.48034 46.3054C14.713 50.4706 21.9371 54.6517 29.1686 58.8193C30.5172 59.5551 32.15 59.6634 33.6327 59.3349C34.6651 59.1195 35.5252 58.4809 36.4308 57.9801C43.1787 54.0562 49.9315 50.1383 56.6769 46.2119C57.206 45.9006 57.7487 45.4392 57.8188 44.7895C57.8483 43.9319 57.8188 43.0718 57.8311 42.2141C57.1174 42.849 56.2364 43.2416 55.4317 43.7411C48.8142 47.5814 42.2042 51.434 35.5855 55.2731C33.9723 56.2575 31.9458 56.4113 30.1394 55.9437C29.1575 55.7025 28.3245 55.1094 27.4545 54.6222C20.6685 50.7044 13.88 46.789 7.09397 42.8712C6.76298 42.6805 6.46397 42.443 6.17112 42.1994Z" fill="#403D39"></path><path d="M33.5982 4.75496C36.5095 6.45793 39.4245 8.15474 42.3321 9.86263C42.5671 9.99552 42.7579 10.2059 42.8354 10.468C43.0458 11.1128 42.9092 11.8105 42.7074 12.4405C40.89 17.9234 39.0677 23.4052 37.2503 28.8881C33.848 30.8569 30.4433 32.8195 27.0398 34.7858C25.2335 31.493 23.426 28.2015 21.6258 24.9051C21.1434 23.8703 21.5827 22.678 22.1007 21.7428C24.964 16.7385 27.8273 11.7329 30.6919 6.72986C30.7042 10.3548 30.7091 13.9798 30.7239 17.6047C30.7103 17.9517 30.7915 18.3332 30.5885 18.642C30.164 19.3668 29.8785 20.2035 29.9671 21.0525C30.0163 21.5841 30.3018 22.1366 30.8186 22.3457C31.3834 22.5771 32.0183 22.374 32.5044 22.0529C33.3805 21.4536 34.0031 20.5185 34.2898 19.5034C34.5543 18.6396 34.4953 17.494 33.6339 16.9846C33.6167 12.908 33.6081 8.8315 33.5982 4.75496Z" fill="#5180A9"></path><path d="M20.1801 33.9749C21.573 36.266 24.1213 37.531 26.6166 38.2496C30.329 39.2536 34.3329 39.2192 38.0157 38.0982C40.2859 37.371 42.5549 36.1454 43.8444 34.066C43.826 36.4949 43.8248 38.9251 43.8001 41.354C43.7632 42.8047 42.865 44.0795 41.7773 44.9728C40.0275 46.4063 37.8324 47.1864 35.6311 47.595C33.2378 48.0293 30.767 48.0269 28.375 47.5913C26.0925 47.1618 23.81 46.346 22.0282 44.8141C21.2198 44.1066 20.5344 43.2071 20.2637 42.1526C20.1087 41.5694 20.1444 40.9615 20.1468 40.3647C20.1579 38.2348 20.1715 36.1048 20.1801 33.9749Z" fill="#5180A9"></path><path d="M38.1498 28.3443C38.4107 27.6183 38.6395 26.8812 38.8869 26.1516C40.6144 26.8689 42.3297 27.9161 43.2907 29.5747C43.9675 30.7092 44.0425 32.176 43.4421 33.3584C42.6447 34.9716 41.082 36.0421 39.4935 36.7878C36.4948 38.1462 33.1086 38.5006 29.8552 38.1696C27.1863 37.8583 24.4707 37.0917 22.3395 35.3924C21.1632 34.4474 20.1702 33.0742 20.196 31.5053C20.2071 29.9636 21.2124 28.6408 22.3715 27.718C23.73 30.1887 25.0835 32.6608 26.4382 35.1328C26.1835 35.2952 25.8833 35.4035 25.6729 35.6262C25.4588 35.9387 25.9103 36.3263 26.1958 36.0679C30.34 33.6808 34.4855 31.2949 38.6199 28.8918C38.9275 28.7676 38.8512 28.2668 38.5214 28.2385C38.4279 28.2655 38.2433 28.3184 38.1498 28.3443Z" fill="white"></path><path d="M7.23428 39.2241C11.3207 36.8431 15.412 34.4732 19.4984 32.0935C19.4848 35.1377 19.4627 38.1819 19.4516 41.2261C19.4504 43.0078 20.5676 44.5791 21.9298 45.6336C24.1741 47.3735 27.0005 48.1831 29.7888 48.487C33.191 48.8168 36.7323 48.4378 39.8565 46.9896C41.493 46.2045 43.068 45.0799 43.9379 43.4446C44.2972 42.7629 44.4953 41.9963 44.4978 41.2248C44.5163 38.204 44.5298 35.1832 44.5482 32.1636C48.5953 34.4978 52.6398 36.8345 56.6856 39.1712C57.2553 39.496 57.8521 40.0239 57.8275 40.7388C57.7856 41.4315 57.1975 41.9176 56.6376 42.2375C49.4763 46.3965 42.3186 50.5628 35.1573 54.7218C34.1766 55.3088 33.0114 55.5155 31.8806 55.4884C30.9306 55.4577 29.9647 55.2682 29.1342 54.7907C21.8584 50.5887 14.5814 46.3891 7.30688 42.1858C6.77039 41.877 6.21914 41.4008 6.17977 40.7388C6.15147 40.062 6.69534 39.5428 7.23428 39.2241Z" fill="white"></path><path d="M6.17124 42.1994C6.46409 42.443 6.7631 42.6805 7.09409 42.8712C13.8801 46.789 20.6686 50.7044 27.4547 54.6222C28.3246 55.1094 29.1576 55.7025 30.1395 55.9437C31.9459 56.4113 33.9725 56.2575 35.5856 55.2731C42.2043 51.434 48.8144 47.5814 55.4318 43.7411C56.2365 43.2416 57.1176 42.849 57.8312 42.2141C57.8189 43.0718 57.8485 43.9319 57.8189 44.7895C57.7488 45.4392 57.2062 45.9006 56.6771 46.2119C49.9316 50.1383 43.1788 54.0562 36.4309 57.9801C35.5253 58.4809 34.6652 59.1195 33.6328 59.3349C32.1501 59.6634 30.5173 59.5551 29.1687 58.8193C21.9372 54.6517 14.7132 50.4706 7.48046 46.3054C6.89722 45.9794 6.26106 45.5105 6.17862 44.7956C6.14909 43.9306 6.18108 43.0644 6.17124 42.1994Z" fill="white"></path></svg>