<svg xmlns="http://www.w3.org/2000/svg" width="63" height="63" viewBox="0 0 63 63" fill="none"><path d="M6.39095 19.4649C23.9067 14.9933 41.4236 10.5267 58.9381 6.05276C59.2679 5.87434 59.6284 6.31116 59.3848 6.59786C55.3378 14.6747 51.2957 22.7539 47.2548 30.8332C49.6321 32.2051 52.0106 33.5759 54.3878 34.9503C55.0178 35.3219 55.7094 35.6554 56.1548 36.2595C56.428 36.6188 56.5916 37.0655 56.583 37.5195C56.5805 38.8398 56.5879 40.1614 56.5793 41.4816C56.5744 42.434 55.8386 43.1846 55.0523 43.6202C47.8996 47.7829 40.7407 51.9382 33.5843 56.0947C32.4523 56.7862 31.0951 57.0274 29.7846 56.9732C28.7707 56.9265 27.7494 56.7001 26.861 56.1968C19.5779 51.9935 12.2947 47.789 5.0116 43.5845C4.24378 43.1477 3.52888 42.4008 3.53626 41.462C3.53749 40.1084 3.53011 38.7549 3.5498 37.4026C3.58794 36.2608 4.61785 35.5434 5.53701 35.0697C9.84242 32.5669 14.1503 30.0666 18.4545 27.5614C14.2044 25.1263 9.94824 22.7022 5.6982 20.2671C5.46195 20.1675 5.42872 19.8119 5.64652 19.674C5.88154 19.567 6.1424 19.535 6.39095 19.4649ZM56.7725 7.3226C40.1021 11.5739 23.4329 15.835 6.76132 20.0826C11.4765 22.7699 16.1892 25.4634 20.8982 28.1606C32.8583 21.2183 44.8209 14.2784 56.7725 7.3226ZM58.1039 7.6253C47.9168 15.7402 37.7384 23.865 27.5526 31.9824C32.2935 34.7276 37.0345 37.4715 41.7755 40.2167C47.2204 29.3554 52.664 18.4916 58.1039 7.6253ZM21.2969 28.7303C22.296 33.1489 23.2976 37.5675 24.3029 41.9849C25.0522 38.6971 25.809 35.4117 26.5583 32.1239C26.5891 31.9689 26.6395 31.8089 26.7786 31.7166C36.2483 24.1591 45.7266 16.6102 55.1963 9.05141C43.8919 15.6037 32.5999 22.1781 21.2969 28.7303ZM5.3512 35.979C4.82087 36.2854 4.2807 36.7579 4.24255 37.4137C4.21917 38.0745 4.73474 38.595 5.26261 38.9124C12.4116 43.048 19.568 47.1713 26.7183 51.3057C28.7141 52.6125 31.4925 52.6346 33.5031 51.3451C40.5832 47.2304 47.6633 43.1145 54.7447 39.001C55.3181 38.6676 55.9185 38.1335 55.8878 37.4088C55.83 36.673 55.1778 36.1906 54.5823 35.8646C52.0364 34.3929 49.4906 32.9213 46.9435 31.4558C45.3833 34.5627 43.8292 37.6746 42.269 40.7815C42.1939 41.003 41.9121 41.1371 41.714 40.9771C38.8003 39.2988 35.8927 37.6094 32.9802 35.9285C30.3285 38.4018 27.6756 40.8738 25.0252 43.347C24.8295 43.5205 24.6548 43.7211 24.4321 43.8626C24.2155 43.9647 23.9608 43.7814 23.9473 43.5525C22.8263 38.6294 21.7177 33.7051 20.5943 28.7832C20.1144 28.5063 19.632 28.2307 19.1497 27.9588C14.5514 30.6351 9.9507 33.3064 5.3512 35.979ZM24.891 42.5202C27.3803 40.2044 29.8671 37.885 32.3526 35.5655C30.6275 34.5615 28.8999 33.5599 27.1699 32.5657C26.4094 35.883 25.649 39.2016 24.891 42.5202ZM4.23148 38.9899C4.23517 39.818 4.22286 40.6474 4.23025 41.4767C4.24624 42.1633 4.81595 42.669 5.3672 42.9927C12.6762 47.2021 19.9741 51.43 27.2855 55.637C29.1965 56.6103 31.6488 56.5278 33.4637 55.3662C40.5463 51.2466 47.635 47.1369 54.7164 43.0136C55.2849 42.6887 55.8681 42.1756 55.8866 41.4718C55.8964 40.6486 55.8853 39.8267 55.8902 39.0035C54.9969 39.7676 53.908 40.2463 52.915 40.8639C46.4526 44.6193 39.9938 48.3809 33.5277 52.1314C32.4806 52.7564 31.2415 52.9902 30.0332 52.9767C28.9245 52.957 27.7999 52.7257 26.8303 52.1732C19.5754 47.9761 12.3107 43.7949 5.05589 39.599C4.76181 39.4243 4.49849 39.204 4.23148 38.9899Z" fill="black"></path><path d="M56.7726 7.32275C44.8211 14.2786 32.8585 21.2184 20.8983 28.1607C16.1893 25.4636 11.4766 22.7701 6.76147 20.0827C23.4331 15.8351 40.1023 11.574 56.7726 7.32275Z" fill="#5180A9"></path><path d="M58.104 7.62549C52.6641 18.4918 47.2205 29.3556 41.7757 40.2169C37.0347 37.4717 32.2937 34.7278 27.5527 31.9826C37.7386 23.8652 47.917 15.7404 58.104 7.62549Z" fill="#5180A9"></path><path d="M21.2971 28.7302C32.6002 22.1779 43.8922 15.6035 55.1965 9.05127C45.7268 16.61 36.2485 24.159 26.7789 31.7165C26.6398 31.8088 26.5894 31.9688 26.5586 32.1238C25.8092 35.4116 25.0525 38.697 24.3032 41.9848C23.2979 37.5674 22.2963 33.1488 21.2971 28.7302Z" fill="white"></path><path d="M5.35136 35.9787C9.95085 33.3061 14.5516 30.6348 19.1498 27.9585C19.6322 28.2304 20.1145 28.5061 20.5944 28.7829C21.7178 33.7048 22.8265 38.6291 23.9474 43.5522C23.961 43.7811 24.2157 43.9644 24.4322 43.8623C24.655 43.7208 24.8297 43.5202 25.0253 43.3467C27.6758 40.8735 30.3286 38.4015 32.9803 35.9282C35.8928 37.6091 38.8004 39.2985 41.7142 40.9769C41.9123 41.1368 42.1941 41.0027 42.2691 40.7812C43.8293 37.6743 45.3834 34.5624 46.9437 31.4555C49.4907 32.921 52.0366 34.3926 54.5824 35.8643C55.178 36.1903 55.8301 36.6727 55.8879 37.4085C55.9187 38.1332 55.3182 38.6673 54.7448 39.0007C47.6635 43.1142 40.5834 47.2301 33.5033 51.3448C31.4927 52.6343 28.7143 52.6122 26.7185 51.3054C19.5682 47.171 12.4118 43.0477 5.26277 38.9121C4.7349 38.5947 4.21933 38.0742 4.24271 37.4134C4.28085 36.7576 4.82103 36.2851 5.35136 35.9787Z" fill="white"></path><path d="M24.8911 42.5199C25.6491 39.2013 26.4095 35.8828 27.1699 32.5654C28.9 33.5596 30.6276 34.5613 32.3527 35.5653C29.8671 37.8847 27.3804 40.2042 24.8911 42.5199Z" fill="white"></path><path d="M4.23166 38.9897C4.49868 39.2038 4.762 39.4241 5.05608 39.5988C12.3109 43.7947 19.5756 47.9759 26.8305 52.173C27.8001 52.7255 28.9247 52.9568 30.0334 52.9765C31.2417 52.99 32.4808 52.7562 33.5279 52.1312C39.994 48.3807 46.4527 44.6191 52.9152 40.8638C53.9081 40.2461 54.9971 39.7674 55.8904 39.0033C55.8855 39.8265 55.8966 40.6484 55.8867 41.4716C55.8683 42.1754 55.285 42.6885 54.7166 43.0134C47.6352 47.1367 40.5465 51.2464 33.4639 55.3661C31.649 56.5276 29.1966 56.6101 27.2857 55.6368C19.9743 51.4298 12.6764 47.2019 5.36739 42.9925C4.81614 42.6688 4.24643 42.1631 4.23043 41.4765C4.22305 40.6472 4.23536 39.8179 4.23166 38.9897Z" fill="white"></path></svg>